<?xml version="1.0" encoding="UTF-8" standalone="no"?>
<svg
   xmlns:dc="http://purl.org/dc/elements/1.1/"
   xmlns:cc="http://creativecommons.org/ns#"
   xmlns:rdf="http://www.w3.org/1999/02/22-rdf-syntax-ns#"
   xmlns:svg="http://www.w3.org/2000/svg"
   xmlns="http://www.w3.org/2000/svg"
   xmlns:sodipodi="http://sodipodi.sourceforge.net/DTD/sodipodi-0.dtd"
   xmlns:inkscape="http://www.inkscape.org/namespaces/inkscape"
   height="78"
   version="1.1"
   viewBox="0 0 18 78"
   width="18"
   id="svg12"
   sodipodi:docname="iconfinder_check-box-outline_326561.svg"
   inkscape:version="0.92.4 (5da689c313, 2019-01-14)">
  <metadata
     id="metadata16">
    <rdf:RDF>
      <cc:Work
         rdf:about="">
        <dc:format>image/svg+xml</dc:format>
        <dc:type
           rdf:resource="http://purl.org/dc/dcmitype/StillImage" />
        <dc:title></dc:title>
      </cc:Work>
    </rdf:RDF>
  </metadata>
  <sodipodi:namedview
     pagecolor="#ffffff"
     bordercolor="#666666"
     borderopacity="1"
     objecttolerance="10"
     gridtolerance="10"
     guidetolerance="10"
     inkscape:pageopacity="0"
     inkscape:pageshadow="2"
     inkscape:window-width="1920"
     inkscape:window-height="1017"
     id="namedview14"
     showgrid="false"
     fit-margin-top="0"
     fit-margin-left="0"
     fit-margin-right="0"
     fit-margin-bottom="0"
     inkscape:zoom="6.5555556"
     inkscape:cx="-23.107259"
     inkscape:cy="39.401156"
     inkscape:window-x="1912"
     inkscape:window-y="-8"
     inkscape:window-maximized="1"
     inkscape:current-layer="svg12" />
  <desc
     id="desc4" />
  <defs
     id="defs6" />
  <g
     id="Page-1"
     style="fill:#434e52;fill-opacity:1;fill-rule:evenodd;stroke:none;stroke-width:1"
     transform="translate(0,60)">
    <g
       id="Core"
       transform="translate(-549,-45)"
       style="fill:#434e52;fill-opacity:1">
      <g
         id="check-box-outline"
         transform="translate(549,45)"
         style="fill:#434e52;fill-opacity:1">
        <path
           d="M 4.9,7.1 3.5,8.5 8,13 18,3 16.6,1.6 8,10.2 Z M 16,16 H 2 V 2 H 12 V 0 H 2 C 0.9,0 0,0.9 0,2 v 14 c 0,1.1 0.9,2 2,2 h 14 c 1.1,0 2,-0.9 2,-2 V 8 h -2 z"
           id="Shape"
           style="fill:#434e52;fill-opacity:1"
           inkscape:connector-curvature="0" />
      </g>
    </g>
  </g>
  <g
     id="Page-1-6"
     style="fill:#434e52;fill-opacity:1;fill-rule:evenodd;stroke:none;stroke-width:1"
     transform="translate(0,40)">
    <g
       transform="translate(-3,-87)"
       id="Core-2"
       style="fill:#434e52;fill-opacity:1">
      <g
         transform="translate(3,87)"
         id="check-box-outline-blank"
         style="fill:#434e52;fill-opacity:1">
        <path
           id="Shape-1"
           d="M 16,2 V 16 H 2 V 2 Z M 16,0 H 2 C 0.9,0 0,0.9 0,2 v 14 c 0,1.1 0.9,2 2,2 h 14 c 1.1,0 2,-0.9 2,-2 V 2 C 18,0.9 17.1,0 16,0 Z"
           inkscape:connector-curvature="0"
           style="fill:#434e52;fill-opacity:1" />
      </g>
    </g>
  </g>
  <g
     id="Page-1-4"
     style="fill:#434e52;fill-opacity:1;fill-rule:evenodd;stroke:none;stroke-width:1"
     transform="matrix(0.9,0,0,0.9,0,20)">
    <g
       transform="translate(-128,-86)"
       id="Core-8"
       style="fill:#434e52;fill-opacity:1">
      <g
         transform="translate(128,86)"
         id="check-circle-outline"
         style="fill:#434e52;fill-opacity:1">
        <path
           id="Shape-6"
           d="M 5.9,8.1 4.5,9.5 9,14 19,4 17.6,2.6 9,11.2 Z M 18,10 c 0,4.4 -3.6,8 -8,8 -4.4,0 -8,-3.6 -8,-8 0,-4.4 3.6,-8 8,-8 0.8,0 1.5,0.1 2.2,0.3 L 13.8,0.7 C 12.6,0.3 11.3,0 10,0 4.5,0 0,4.5 0,10 c 0,5.5 4.5,10 10,10 5.5,0 10,-4.5 10,-10 z"
           inkscape:connector-curvature="0"
           style="fill:#434e52;fill-opacity:1" />
      </g>
    </g>
  </g>
  <g
     id="Page-1-2"
     style="fill:#434e52;fill-opacity:1;fill-rule:evenodd;stroke:none;stroke-width:1"
     transform="scale(0.9)">
    <g
       transform="translate(-170,-86)"
       id="Core-6"
       style="fill:#434e52;fill-opacity:1">
      <g
         transform="translate(170,86)"
         id="check-circle-outline-blank"
         style="fill:#434e52;fill-opacity:1">
        <path
           id="Shape-3"
           d="M 10,0 C 4.5,0 0,4.5 0,10 0,15.5 4.5,20 10,20 15.5,20 20,15.5 20,10 20,4.5 15.5,0 10,0 Z m 0,18 C 5.6,18 2,14.4 2,10 2,5.6 5.6,2 10,2 c 4.4,0 8,3.6 8,8 0,4.4 -3.6,8 -8,8 z"
           inkscape:connector-curvature="0"
           style="fill:#434e52;fill-opacity:1" />
      </g>
    </g>
  </g>
</svg>
