<svg width="40" height="50" version="1.1" viewBox="0 0 10.583 13.229" xmlns="http://www.w3.org/2000/svg">
	<path d="m4.8329 0.76672c-2.3654 5.33e-5 -4.283 1.8521-4.2829 4.1367-5.719e-5 2.2846 1.9175 4.1366 4.2829 4.1367 0.42728-2.587e-4 0.84377-0.041388 1.252-0.16309 0.0107 0.0424 0.035052 0.06332 0.060552 0.10211l2.1689 3.3021c0.12214 0.18595 0.37008 0.23738 0.55604 0.11523l0.98133-0.6444c0.18596-0.12214 0.23738-0.3706 0.11524-0.55656-0.72471-1.1026-1.4492-2.2078-2.1739-3.3091 0.84332-0.77887 1.3211-1.8563 1.3229-2.9833 5.72e-5 -2.2846-1.9175-4.1367-4.283-4.1367zm0 1.2697c1.5834 1.104e-4 2.8669 1.2836 2.867 2.867 1.657e-4 1.5835-1.2835 2.8674-2.867 2.8675-1.5837 1.657e-4 -2.8677-1.2838-2.8675-2.8675 1.105e-4 -1.5835 1.284-2.8672 2.8675-2.867z" fill="#434e52"/>
</svg>
