<?xml version="1.0" encoding="UTF-8" standalone="no"?>
<svg
   xmlns:dc="http://purl.org/dc/elements/1.1/"
   xmlns:cc="http://creativecommons.org/ns#"
   xmlns:rdf="http://www.w3.org/1999/02/22-rdf-syntax-ns#"
   xmlns:svg="http://www.w3.org/2000/svg"
   xmlns="http://www.w3.org/2000/svg"
   xml:space="preserve"
   enable-background="new 0 0 120 1236.5"
   viewBox="0 0 120 1236.5"
   height="1236.5px"
   width="120px"
   y="0px"
   x="0px"
   id="Calque_1"
   version="1.1"><metadata
   id="metadata268"><rdf:RDF><cc:Work
       rdf:about=""><dc:format>image/svg+xml</dc:format><dc:type
         rdf:resource="http://purl.org/dc/dcmitype/StillImage" /><dc:title></dc:title></cc:Work></rdf:RDF></metadata><defs
   id="defs266">
	
	
	
	
	
	
	
	
	
</defs>
<g
   style="opacity:0.3"
   id="Grain_de_contenu">
		<path
   d="m 64.475,5.623 c 2.129,2.406 3.406,10.181 6,9 1.332,-2.666 2.666,-5.334 4,-8 0.334,0 0.666,0 1,0 0.334,3.666 0.666,7.334 1,11 3,-2.333 6,-4.667 9,-7 -0.334,3.333 -0.666,6.667 -1,10 3,-2 6,-4 9,-6 -0.666,3.666 -1.334,7.334 -2,11 3.332,-1.666 6.666,-3.334 10,-5 -1.334,3.333 -2.668,6.667 -4,10 3.332,-0.666 6.666,-1.334 10,-2 0,0.334 0,0.667 0,1 -1.666,2.666 -3.334,5.334 -5,8 3.666,-0.333 7.334,-0.666 11,-1 -2.334,2.666 -4.668,5.334 -7,8 0.666,0 1.334,0 2,0 2.666,0.334 5.334,0.667 8,1 -2.666,2 -5.334,4 -8,6 0.334,0.666 0.666,1.334 1,2 3,0.666 6,1.334 9,2 0,0.334 0,0.667 0,1 -3,1.333 -6,2.667 -9,4 0,0.334 0,0.667 0,1 2.666,1.333 5.334,2.667 8,4 0,0.334 0,0.667 0,1 -3,0.666 -6,1.334 -9,2 0.334,0.666 0.666,1.334 1,2 2.332,1.666 4.666,3.334 7,5 -3.334,0.334 -6.668,0.667 -10,1 2.332,2.666 4.666,5.334 7,8 -3.666,0 -7.334,0 -11,0 1.666,2.666 3.334,5.334 5,8 -3.334,-0.666 -6.668,-1.334 -10,-2 1.332,3.333 2.666,6.667 4,10 -3.334,-1.333 -6.668,-2.667 -10,-4 0.666,3.333 1.334,6.667 2,10 -3,-2 -6,-4 -9,-6 0,3.333 0,6.667 0,10 -2.666,-2.333 -5.334,-4.667 -8,-7 -0.334,3.666 -0.666,7.334 -1,11 -0.666,-0.333 -1.334,-0.666 -2,-1 -1.666,-2.666 -3.334,-5.334 -5,-8 0,0.666 0,1.334 0,2 -1,2.666 -2,5.334 -3,8 -0.334,0 -0.668,0 -1,0 -1.334,-3 -2.668,-6 -4,-9 -0.333,0 -0.667,0 -1,0 -1.333,2.666 -2.667,5.334 -4,8 -0.333,0 -0.667,0 -1,0 -0.667,-3.333 -1.333,-6.667 -2,-10 -0.667,0.334 -1.333,0.667 -2,1 -1.497,3.633 -2.642,5.188 -6,7 0,-3.333 0,-6.667 0,-10 -2.999,2 -6.001,4 -9,6 0.667,-3.666 1.333,-7.334 2,-11 -3.333,2 -6.667,4 -10,6 1,-3 2,-6 3,-9 -3.333,0.666 -6.667,1.334 -10,2 1.667,-3.333 3.333,-6.667 5,-10 -3.667,0.666 -7.333,1.334 -11,2 0.667,-0.666 1.333,-1.334 2,-2 1.667,-2.333 3.333,-4.667 5,-7 -3.667,0 -7.333,0 -11,0 1,-1.333 2,-2.667 3,-4 1.667,-1.333 3.333,-2.667 5,-4 -3.667,-0.333 -7.333,-0.666 -11,-1 0.333,-0.666 0.667,-1.334 1,-2 2.667,-1.666 5.333,-3.334 8,-5 -3.333,-1.333 -6.667,-2.667 -10,-4 3.333,-1 6.667,-2 10,-3 -2.999,-2.333 -6.001,-4.667 -9,-7 3.667,-0.333 7.333,-0.666 11,-1 -1.333,-1.666 -2.667,-3.334 -4,-5 -1.333,-1 -2.667,-2 -4,-3 3.667,0 7.333,0 11,0 -1,-1 -2,-2 -3,-3 -1.333,-2 -2.667,-4 -4,-6 3.667,0.666 7.333,1.334 11,2 -1.667,-3.333 -3.333,-6.667 -5,-10 3.667,1.333 7.333,2.667 11,4 -0.667,-3.333 -1.333,-6.667 -2,-10 2.667,1.666 5.333,3.334 8,5 -0.333,-3.666 -0.667,-7.334 -1,-11 2.333,2.333 4.667,4.667 7,7 0.667,-0.333 1.333,-0.666 2,-1 0.333,-3.333 0.667,-6.667 1,-10 1.587,3.769 3.481,6.127 7,8 0.667,-3 1.333,-6 2,-9 0.333,0.666 0.667,1.334 1,2 1.333,2.333 2.667,4.667 4,7 0.333,0 0.667,0 1,0 1,-3.333 2,-6.667 3,-10 z"
   id="path2"
   style="fill:#434e52" />
		<g
   style=""
   id="g42">
			<polygon
   points="43.885,35.595 41.728,35.328 43.147,34.317 "
   id="polygon4"
   style="fill:#b95a59" />
			<path
   d="m 94.372,81.699 c 0,2.028 -1.675,3.632 -3.739,3.632 H 34.418 c -2.066,0 -3.843,-1.604 -3.843,-3.632 V 41.866 c 0,-2.028 1.776,-3.744 3.843,-3.744 h 56.214 c 2.065,0 3.739,1.716 3.739,3.744 z"
   id="path6"
   style="fill:#ffffff" />
			<rect
   x="33.269001"
   y="35.286999"
   width="27.219999"
   height="43.097"
   id="rect8"
   style="fill:#f7f7f7" />
			<path
   d="m 62.544,80.312 c 0.255,-0.959 1.063,-1.689 2.056,-1.823 v -0.104 h -4.111 v 0.104 c 0.991,0.133 1.801,0.864 2.055,1.823 z"
   id="path10"
   style="fill:#c6c5c4" />
			
				<linearGradient
   id="SVGID_1_"
   gradientUnits="userSpaceOnUse"
   x1="342.1875"
   y1="1301.8125"
   x2="346.2998"
   y2="1301.8125"
   gradientTransform="translate(-281.7002,-1243.9805)">
				<stop
   offset="0"
   style="stop-color:#EFEFEF"
   id="stop12" />
				<stop
   offset="1"
   style="stop-color:#E6E6E6"
   id="stop14" />
			</linearGradient>
			<path
   d="m 64.6,35.354 v 43.134 c -0.992,0.136 -1.799,0.864 -2.056,1.823 -0.256,-0.959 -1.063,-1.688 -2.056,-1.823 V 35.354 c 1.134,0.129 1.815,0.835 2.056,1.768 0.242,-0.934 1.063,-1.64 2.056,-1.768 z"
   id="path17"
   style="fill:url(#SVGID_1_)" />
			<polygon
   points="64.316,35.497 85.157,28.251 85.157,71.05 64.316,78.296 "
   id="polygon19"
   style="fill:#efefef" />
			<rect
   x="33.269001"
   y="78.384003"
   width="58.550999"
   height="3.687"
   id="rect21"
   style="fill:#d1d0cf" />
			<rect
   x="33.269001"
   y="35.286999"
   width="27.219999"
   height="43.097"
   id="rect23"
   style="fill:#f7f7f7" />
			<rect
   x="64.599998"
   y="35.286999"
   width="27.221001"
   height="43.097"
   id="rect25"
   style="fill:#f4f4f4" />
			
				<linearGradient
   id="SVGID_2_"
   gradientUnits="userSpaceOnUse"
   x1="342.1875"
   y1="1301.8125"
   x2="346.2998"
   y2="1301.8125"
   gradientTransform="translate(-281.7002,-1243.9805)">
				<stop
   offset="0"
   style="stop-color:#EFEFEF"
   id="stop27" />
				<stop
   offset="1"
   style="stop-color:#E6E6E6"
   id="stop29" />
			</linearGradient>
			<path
   d="m 64.6,35.354 v 43.134 c -0.992,0.136 -1.799,0.864 -2.056,1.823 -0.256,-0.959 -1.063,-1.688 -2.056,-1.823 V 35.354 c 1.134,0.129 1.815,0.835 2.056,1.768 0.242,-0.934 1.063,-1.64 2.056,-1.768 z"
   id="path32"
   style="fill:url(#SVGID_2_)" />
			<polygon
   points="64.715,35.328 64.863,35.328 64.715,35.38 "
   id="polygon34"
   style="fill:#f4f4f4" />
			<path
   d="M 91.82,35.287 V 38.39 C 91.394,38.262 91.056,38.122 90.632,38.122 H 85.156 V 35.287 Z"
   id="path36"
   style="fill:#f4f4f4" />
			<polygon
   points="64.316,35.417 85.157,28.139 85.157,71.13 64.316,78.407 "
   id="polygon38"
   style="fill:#e0e2e0" />
			<polygon
   points="43.051,34.294 38.373,34.294 38.373,68.506 40.712,66.562 43.051,68.508 "
   id="polygon40"
   style="fill:#f67876" />
		</g>
	</g><g
   style="opacity:0.3"
   id="Question_de_synthèse">
		<path
   d="m 62.488,879.029 c 2.13,2.405 3.408,10.181 6,9 1.334,-2.666 2.668,-5.334 4,-8 0.334,0 0.666,0 1,0 0.334,3.666 0.666,7.334 1,11 3,-2.333 6,-4.667 9,-7 -0.334,3.333 -0.666,6.667 -1,10 3,-2 6,-4 9,-6 -0.666,3.666 -1.334,7.334 -2,11 3.334,-1.666 6.668,-3.334 10,-5 -1.332,3.333 -2.666,6.667 -4,10 3.334,-0.666 6.668,-1.334 10,-2 0,0.334 0,0.667 0,1 -1.666,2.666 -3.334,5.334 -5,8 3.666,-0.333 7.334,-0.666 11,-1 -2.332,2.666 -4.666,5.334 -7,8 0.666,0 1.334,0 2,0 2.666,0.334 5.334,0.667 8,1 -2.666,2 -5.334,4 -8,6 0.334,0.666 0.666,1.334 1,2 3,0.666 6,1.334 9,2 0,0.334 0,0.667 0,1 -3,1.333 -6,2.667 -9,4 0,0.334 0,0.667 0,1 2.666,1.333 5.334,2.667 8,4 0,0.334 0,0.667 0,1 -3,0.666 -6,1.334 -9,2 0.334,0.666 0.666,1.334 1,2 2.334,1.666 4.668,3.334 7,5 -3.332,0.334 -6.666,0.667 -10,1 2.334,2.666 4.668,5.334 7,8 -3.666,0 -7.334,0 -11,0 1.666,2.666 3.334,5.334 5,8 -3.332,-0.666 -6.666,-1.334 -10,-2 1.334,3.333 2.668,6.667 4,10 -3.332,-1.333 -6.666,-2.667 -10,-4 0.666,3.333 1.334,6.667 2,10 -3,-2 -6,-4 -9,-6 0,3.333 0,6.667 0,10 -2.666,-2.333 -5.334,-4.667 -8,-7 -0.334,3.666 -0.666,7.334 -1,11 -0.666,-0.333 -1.334,-0.666 -2,-1 -1.666,-2.666 -3.334,-5.334 -5,-8 0,0.666 0,1.334 0,2 -1,2.666 -2,5.334 -3,8 -0.334,0 -0.666,0 -1,0 -1.332,-3 -2.667,-6 -4,-9 -0.333,0 -0.667,0 -1,0 -1.333,2.666 -2.667,5.334 -4,8 -0.333,0 -0.667,0 -1,0 -0.667,-3.333 -1.333,-6.667 -2,-10 -0.667,0.334 -1.333,0.667 -2,1 -1.497,3.633 -2.642,5.188 -6,7 0,-3.333 0,-6.667 0,-10 -2.999,2 -6.001,4 -9,6 0.667,-3.666 1.333,-7.334 2,-11 -3.333,2 -6.667,4 -10,6 1,-3 2,-6 3,-9 -3.333,0.666 -6.667,1.334 -10,2 1.667,-3.333 3.333,-6.667 5,-10 -3.667,0.666 -7.333,1.334 -11,2 0.667,-0.666 1.333,-1.334 2,-2 1.667,-2.333 3.333,-4.667 5,-7 -3.667,0 -7.333,0 -11,0 1,-1.333 2,-2.667 3,-4 1.667,-1.333 3.333,-2.667 5,-4 -3.667,-0.333 -7.333,-0.666 -11,-1 0.333,-0.666 0.667,-1.334 1,-2 2.667,-1.666 5.333,-3.334 8,-5 -3.333,-1.333 -6.667,-2.667 -10,-4 3.333,-1 6.667,-2 10,-3 -2.999,-2.333 -6.001,-4.667 -9,-7 3.667,-0.333 7.333,-0.666 11,-1 -1.333,-1.666 -2.667,-3.334 -4,-5 -1.333,-1 -2.667,-2 -4,-3 3.667,0 7.333,0 11,0 -1,-1 -2,-2 -3,-3 -1.333,-2 -2.667,-4 -4,-6 3.667,0.666 7.333,1.334 11,2 -1.667,-3.333 -3.333,-6.667 -5,-10 3.667,1.333 7.333,2.667 11,4 -0.667,-3.333 -1.333,-6.667 -2,-10 2.667,1.666 5.333,3.334 8,5 -0.333,-3.666 -0.667,-7.334 -1,-11 2.333,2.333 4.667,4.667 7,7 0.667,-0.333 1.333,-0.666 2,-1 0.333,-3.333 0.667,-6.667 1,-10 1.587,3.769 3.481,6.127 7,8 0.667,-3 1.333,-6 2,-9 0.333,0.666 0.667,1.334 1,2 1.333,2.333 2.667,4.667 4,7 0.333,0 0.667,0 1,0 1.001,-3.333 2,-6.667 3,-10 z"
   id="path45"
   style="fill:#434e52" />
		<g
   style=""
   id="g65">
			<path
   d="m 94.555,915.218 v 27.758 c 0,2.237 -1.785,3.971 -4.021,3.971 H 88.5 v 8.051 l -6.816,-8.051 H 45.841 c -2.238,0 -4.271,-1.732 -4.271,-3.971 v -27.758 c 0,-2.237 2.034,-4.191 4.271,-4.191 h 44.691 c 2.238,-0.002 4.023,1.952 4.023,4.191 z"
   id="path47"
   style="fill:#f67876" />
			<circle
   cx="70.835999"
   cy="930.31201"
   r="5.4060001"
   id="circle49"
   style="fill:#abb7b7" />
			<circle
   cx="56.668999"
   cy="930.31201"
   r="5.4060001"
   id="circle51"
   style="fill:#abb7b7" />
			<polygon
   points="36.202,948.734 47.171,948.734 36.202,963.034 "
   id="polygon53"
   style="fill:#4a8d8a" />
			<path
   enable-background="new    "
   d="m 88.5,954.996 v -8.051 h 2.033 c 2.236,0 4.021,-1.732 4.021,-3.971 v -12.189 l -12.539,-14.76 -4.48,30.92 h 4.146 z"
   id="path55"
   style="opacity:0.3;fill:#292826" />
			<path
   d="m 82.857,948.918 c 0,2.406 -1.951,4.358 -4.358,4.358 H 34.78 c -2.407,0 -4.358,-1.952 -4.358,-4.358 v -30.369 c 0,-2.407 1.951,-4.357 4.358,-4.357 h 43.719 c 2.407,0 4.358,1.95 4.358,4.357 z"
   id="path57"
   style="fill:#4a8d8a" />
			<circle
   enable-background="new    "
   cx="56.673"
   cy="933.75702"
   r="5.4060001"
   id="circle59"
   style="opacity:0.8;fill:#ffffff" />
			<circle
   enable-background="new    "
   cx="70.839996"
   cy="933.75702"
   r="5.4060001"
   id="circle61"
   style="opacity:0.8;fill:#ffffff" />
			<circle
   enable-background="new    "
   cx="42.506001"
   cy="933.75702"
   r="5.4060001"
   id="circle63"
   style="opacity:0.8;fill:#ffffff" />
		</g>
	</g><g
   style="opacity:0.3"
   id="Division">
		<path
   d="m 62.488,754.257 c 2.13,2.406 3.408,10.181 6,9 1.334,-2.666 2.668,-5.334 4,-8 0.334,0 0.666,0 1,0 0.334,3.666 0.666,7.334 1,11 3,-2.333 6,-4.667 9,-7 -0.334,3.333 -0.666,6.667 -1,10 3,-2 6,-4 9,-6 -0.666,3.666 -1.334,7.334 -2,11 3.334,-1.666 6.668,-3.334 10,-5 -1.332,3.333 -2.666,6.667 -4,10 3.334,-0.666 6.668,-1.334 10,-2 0,0.334 0,0.667 0,1 -1.666,2.666 -3.334,5.334 -5,8 3.666,-0.333 7.334,-0.666 11,-1 -2.332,2.666 -4.666,5.334 -7,8 0.666,0 1.334,0 2,0 2.666,0.334 5.334,0.667 8,1 -2.666,2 -5.334,4 -8,6 0.334,0.666 0.666,1.334 1,2 3,0.666 6,1.334 9,2 0,0.334 0,0.667 0,1 -3,1.333 -6,2.667 -9,4 0,0.334 0,0.667 0,1 2.666,1.333 5.334,2.667 8,4 0,0.334 0,0.667 0,1 -3,0.666 -6,1.334 -9,2 0.334,0.666 0.666,1.334 1,2 2.334,1.666 4.668,3.334 7,5 -3.332,0.334 -6.666,0.667 -10,1 2.334,2.666 4.668,5.334 7,8 -3.666,0 -7.334,0 -11,0 1.666,2.666 3.334,5.334 5,8 -3.332,-0.666 -6.666,-1.334 -10,-2 1.334,3.333 2.668,6.667 4,10 -3.332,-1.333 -6.666,-2.667 -10,-4 0.666,3.333 1.334,6.667 2,10 -3,-2 -6,-4 -9,-6 0,3.333 0,6.667 0,10 -2.666,-2.333 -5.334,-4.667 -8,-7 -0.334,3.666 -0.666,7.334 -1,11 -0.666,-0.333 -1.334,-0.666 -2,-1 -1.666,-2.666 -3.334,-5.334 -5,-8 0,0.666 0,1.334 0,2 -1,2.666 -2,5.334 -3,8 -0.334,0 -0.666,0 -1,0 -1.332,-3 -2.667,-6 -4,-9 -0.333,0 -0.667,0 -1,0 -1.333,2.666 -2.667,5.334 -4,8 -0.333,0 -0.667,0 -1,0 -0.667,-3.333 -1.333,-6.667 -2,-10 -0.667,0.334 -1.333,0.667 -2,1 -1.497,3.633 -2.642,5.188 -6,7 0,-3.333 0,-6.667 0,-10 -2.999,2 -6.001,4 -9,6 0.667,-3.666 1.333,-7.334 2,-11 -3.333,2 -6.667,4 -10,6 1,-3 2,-6 3,-9 -3.333,0.666 -6.667,1.334 -10,2 1.667,-3.333 3.333,-6.667 5,-10 -3.667,0.666 -7.333,1.334 -11,2 0.667,-0.666 1.333,-1.334 2,-2 1.667,-2.333 3.333,-4.667 5,-7 -3.667,0 -7.333,0 -11,0 1,-1.333 2,-2.667 3,-4 1.667,-1.333 3.333,-2.667 5,-4 -3.667,-0.333 -7.333,-0.666 -11,-1 0.333,-0.666 0.667,-1.334 1,-2 2.667,-1.666 5.333,-3.334 8,-5 -3.333,-1.333 -6.667,-2.667 -10,-4 3.333,-1 6.667,-2 10,-3 -2.999,-2.333 -6.001,-4.667 -9,-7 3.667,-0.333 7.333,-0.666 11,-1 -1.333,-1.666 -2.667,-3.334 -4,-5 -1.333,-1 -2.667,-2 -4,-3 3.667,0 7.333,0 11,0 -1,-1 -2,-2 -3,-3 -1.333,-2 -2.667,-4 -4,-6 3.667,0.666 7.333,1.334 11,2 -1.667,-3.333 -3.333,-6.667 -5,-10 3.667,1.333 7.333,2.667 11,4 -0.667,-3.333 -1.333,-6.667 -2,-10 2.667,1.666 5.333,3.334 8,5 -0.333,-3.666 -0.667,-7.334 -1,-11 2.333,2.333 4.667,4.667 7,7 0.667,-0.333 1.333,-0.666 2,-1 0.333,-3.333 0.667,-6.667 1,-10 1.587,3.77 3.481,6.127 7,8 0.667,-3 1.333,-6 2,-9 0.333,0.666 0.667,1.334 1,2 1.333,2.333 2.667,4.667 4,7 0.333,0 0.667,0 1,0 1.001,-3.333 2,-6.667 3,-10 z"
   id="path68"
   style="fill:#434e52" />
		<g
   style=""
   id="g100">
			<path
   d="m 33.341,835.979 v -21.414 c 0,-2.5 1.875,-4.526 4.175,-4.526 l 52.22,-7.103 c 2.302,0 4.17,2.011 4.17,4.511 l -1.854,28.533 z"
   id="path70"
   style="fill:#c5c9c7" />
			<path
   d="M 91.852,836.015 V 792.177 L 78.504,778.829 H 35.601 c -2.374,0 -4.298,1.924 -4.298,4.298 v 52.888 z"
   id="path72"
   style="fill:#e3e5e4" />
			<rect
   x="36.409"
   y="784.513"
   width="44.354"
   height="5.8579998"
   id="rect74"
   style="fill:#f67876" />
			<path
   d="m 82.672,792.097 h 9.18 l -13.27,-13.268 v 9.18 c 0.001,2.408 1.684,4.088 4.09,4.088 z"
   id="path76"
   style="fill:#f0f0f0" />
			<rect
   x="36.409"
   y="795.81299"
   width="17.434999"
   height="19.246"
   id="rect78"
   style="fill:#63bcb8" />
			<rect
   x="57.75"
   y="795.81299"
   width="29.43"
   height="3.4849999"
   id="rect80"
   style="fill:#abb7b7" />
			<rect
   x="57.75"
   y="800.97198"
   width="29.43"
   height="3.6259999"
   id="rect82"
   style="fill:#abb7b7" />
			<rect
   x="57.75"
   y="806.271"
   width="29.43"
   height="3.4860001"
   id="rect84"
   style="fill:#abb7b7" />
			<rect
   x="57.75"
   y="811.43298"
   width="17.854"
   height="3.6259999"
   id="rect86"
   style="fill:#abb7b7" />
			<path
   d="m 52.606,804.285 c 0,-2.245 -1.206,-4.231 -3.006,-5.3 l -3.093,5.334 h 6.097 c 0,0 0.002,-0.006 0.002,-0.034 z"
   id="path88"
   style="fill:#e3e5e4" />
			<path
   d="m 44.382,805.714 3.093,-5.354 c -0.916,-0.543 -1.983,-0.854 -3.125,-0.854 -3.386,0 -6.132,2.747 -6.132,6.134 0,3.387 2.746,6.128 6.132,6.128 3.359,0 6.086,-2.706 6.13,-6.054 z"
   id="path90"
   style="fill:#e3e5e4" />
			<rect
   x="36.409"
   y="817.70898"
   width="50.771"
   height="3.487"
   id="rect92"
   style="fill:#939999" />
			<rect
   x="36.409"
   y="822.86902"
   width="27.198"
   height="3.6259999"
   id="rect94"
   style="fill:#abb7b7" />
			<rect
   x="36.409"
   y="828.16998"
   width="27.198"
   height="3.4860001"
   id="rect96"
   style="fill:#abb7b7" />
			<rect
   x="36.409"
   y="833.33099"
   width="50.771"
   height="2.6470001"
   id="rect98"
   style="fill:#abb7b7" />
		</g>
	</g><g
   style="opacity:0.3"
   id="Activité_d_x27_auto-évaluation">
		<path
   d="m 62.488,379.94 c 2.13,2.406 3.408,10.181 6,9 1.334,-2.666 2.668,-5.334 4,-8 0.334,0 0.666,0 1,0 0.334,3.666 0.666,7.334 1,11 3,-2.333 6,-4.667 9,-7 -0.334,3.333 -0.666,6.667 -1,10 3,-2 6,-4 9,-6 -0.666,3.666 -1.334,7.334 -2,11 3.334,-1.666 6.668,-3.334 10,-5 -1.332,3.333 -2.666,6.667 -4,10 3.334,-0.666 6.668,-1.334 10,-2 0,0.334 0,0.667 0,1 -1.666,2.666 -3.334,5.334 -5,8 3.666,-0.333 7.334,-0.666 11,-1 -2.332,2.666 -4.666,5.334 -7,8 0.666,0 1.334,0 2,0 2.666,0.334 5.334,0.667 8,1 -2.666,2 -5.334,4 -8,6 0.334,0.666 0.666,1.334 1,2 3,0.666 6,1.334 9,2 0,0.334 0,0.667 0,1 -3,1.333 -6,2.667 -9,4 0,0.334 0,0.667 0,1 2.666,1.333 5.334,2.667 8,4 0,0.334 0,0.667 0,1 -3,0.666 -6,1.334 -9,2 0.334,0.666 0.666,1.334 1,2 2.334,1.666 4.668,3.334 7,5 -3.332,0.334 -6.666,0.667 -10,1 2.334,2.666 4.668,5.334 7,8 -3.666,0 -7.334,0 -11,0 1.666,2.666 3.334,5.334 5,8 -3.332,-0.666 -6.666,-1.334 -10,-2 1.334,3.333 2.668,6.667 4,10 -3.332,-1.333 -6.666,-2.667 -10,-4 0.666,3.333 1.334,6.667 2,10 -3,-2 -6,-4 -9,-6 0,3.333 0,6.667 0,10 -2.666,-2.333 -5.334,-4.667 -8,-7 -0.334,3.666 -0.666,7.334 -1,11 -0.666,-0.333 -1.334,-0.666 -2,-1 -1.666,-2.666 -3.334,-5.334 -5,-8 0,0.666 0,1.334 0,2 -1,2.666 -2,5.334 -3,8 -0.334,0 -0.666,0 -1,0 -1.332,-3 -2.667,-6 -4,-9 -0.333,0 -0.667,0 -1,0 -1.333,2.666 -2.667,5.334 -4,8 -0.333,0 -0.667,0 -1,0 -0.667,-3.333 -1.333,-6.667 -2,-10 -0.667,0.334 -1.333,0.667 -2,1 -1.497,3.633 -2.642,5.188 -6,7 0,-3.333 0,-6.667 0,-10 -2.999,2 -6.001,4 -9,6 0.667,-3.666 1.333,-7.334 2,-11 -3.333,2 -6.667,4 -10,6 1,-3 2,-6 3,-9 -3.333,0.666 -6.667,1.334 -10,2 1.667,-3.333 3.333,-6.667 5,-10 -3.667,0.666 -7.333,1.334 -11,2 0.667,-0.666 1.333,-1.334 2,-2 1.667,-2.333 3.333,-4.667 5,-7 -3.667,0 -7.333,0 -11,0 1,-1.333 2,-2.667 3,-4 1.667,-1.333 3.333,-2.667 5,-4 -3.667,-0.333 -7.333,-0.666 -11,-1 0.333,-0.666 0.667,-1.334 1,-2 2.667,-1.666 5.333,-3.334 8,-5 -3.333,-1.333 -6.667,-2.667 -10,-4 3.333,-1 6.667,-2 10,-3 -2.999,-2.333 -6.001,-4.667 -9,-7 3.667,-0.333 7.333,-0.666 11,-1 -1.333,-1.666 -2.667,-3.334 -4,-5 -1.333,-1 -2.667,-2 -4,-3 3.667,0 7.333,0 11,0 -1,-1 -2,-2 -3,-3 -1.333,-2 -2.667,-4 -4,-6 3.667,0.666 7.333,1.334 11,2 -1.667,-3.333 -3.333,-6.667 -5,-10 3.667,1.333 7.333,2.667 11,4 -0.667,-3.333 -1.333,-6.667 -2,-10 2.667,1.666 5.333,3.334 8,5 -0.333,-3.666 -0.667,-7.334 -1,-11 2.333,2.333 4.667,4.667 7,7 0.667,-0.333 1.333,-0.666 2,-1 0.333,-3.333 0.667,-6.667 1,-10 1.587,3.769 3.481,6.127 7,8 0.667,-3 1.333,-6 2,-9 0.333,0.666 0.667,1.334 1,2 1.333,2.333 2.667,4.667 4,7 0.333,0 0.667,0 1,0 1.001,-3.333 2,-6.667 3,-10 z"
   id="path103"
   style="fill:#434e52" />
		<g
   style=""
   id="g123">
			<circle
   cx="61.167"
   cy="435.035"
   r="25.51"
   id="circle105"
   style="fill:#f4f4f4" />
			<circle
   enable-background="new    "
   cx="61.717999"
   cy="435.96399"
   r="6.2389998"
   id="circle107"
   style="opacity:0.1" />
			<path
   d="M 59.299,431.501 48.468,420.67 c -0.591,-0.591 -1.548,-0.591 -2.14,0 -0.591,0.591 -0.591,1.548 0,2.14 l 10.831,10.831 z"
   id="path109"
   style="fill:#4a8d8a" />
			<path
   d="m 66.16,436.351 10.762,-2.713 c 1.087,-0.273 1.758,-1.335 1.482,-2.423 -0.274,-1.087 -1.366,-1.703 -2.454,-1.429 L 65.189,432.5 Z"
   id="path111"
   style="fill:#4a8d8a" />
			<circle
   cx="61.167"
   cy="435.03601"
   r="2.552"
   id="circle113"
   style="fill:#f67876" />
			<path
   enable-background="new    "
   d="m 37.073,437.264 c 0,-14.779 11.865,-26.763 26.503,-26.763 6.643,0 12.714,2.469 17.365,6.545 -4.881,-5.32 -11.881,-8.654 -19.658,-8.654 -14.752,0 -26.71,11.994 -26.71,26.791 0,8.794 4.223,16.599 10.746,21.481 -5.078,-4.876 -8.246,-11.764 -8.246,-19.4 z"
   id="path115"
   style="opacity:0.1;fill:#434e52" />
			<path
   d="m 61.167,400.639 c -18.945,0 -34.303,15.356 -34.303,34.302 0,18.943 15.358,34.302 34.303,34.302 18.944,0 34.302,-15.357 34.302,-34.302 0,-18.946 -15.358,-34.302 -34.302,-34.302 z m 0,59.811 c -14.089,0 -25.51,-11.421 -25.51,-25.51 0,-14.089 11.42,-25.51 25.51,-25.51 14.088,0 25.511,11.421 25.511,25.51 0,14.089 -11.423,25.51 -25.511,25.51 z"
   id="path117"
   style="fill:#4a8d8a" />
			<circle
   stroke-miterlimit="10"
   cx="61.167"
   cy="435.03601"
   r="4.8049998"
   id="circle119"
   style="fill:none;stroke:#3b556c;stroke-width:10;stroke-miterlimit:10" />
			<path
   d="m 42.948,446.383 18.302,-12.68 1.293,1.864 -18.302,12.683 c -0.516,0.356 -1.222,0.228 -1.579,-0.287 -0.357,-0.517 -0.229,-1.222 0.286,-1.58 z"
   id="path121"
   style="fill:#f67876" />
		</g>
	</g><g
   style="opacity:0.3"
   id="Objectif">
		<path
   d="m 66.316,1003.802 c 2.129,2.406 3.406,10.182 6,9 1.332,-2.666 2.666,-5.334 4,-8 0.334,0 0.666,0 1,0 0.334,3.666 0.666,7.334 1,11 3,-2.333 6,-4.667 9,-7 -0.334,3.333 -0.666,6.667 -1,10 3,-2 6,-4 9,-6 -0.666,3.666 -1.334,7.334 -2,11 3.332,-1.666 6.666,-3.334 10,-5 -1.334,3.333 -2.668,6.667 -4,10 3.332,-0.666 6.666,-1.334 10,-2 0,0.334 0,0.667 0,1 -1.666,2.666 -3.334,5.334 -5,8 3.666,-0.333 7.334,-0.666 11,-1 -2.334,2.666 -4.668,5.334 -7,8 0.666,0 1.334,0 2,0 2.666,0.334 5.334,0.667 8,1 -2.666,2 -5.334,4 -8,6 0.334,0.666 0.666,1.334 1,2 3,0.666 6,1.334 9,2 0,0.334 0,0.667 0,1 -3,1.333 -6,2.667 -9,4 0,0.334 0,0.667 0,1 2.666,1.333 5.334,2.667 8,4 0,0.334 0,0.667 0,1 -3,0.666 -6,1.334 -9,2 0.334,0.666 0.666,1.334 1,2 2.332,1.666 4.666,3.334 7,5 -3.334,0.334 -6.668,0.667 -10,1 2.332,2.666 4.666,5.334 7,8 -3.666,0 -7.334,0 -11,0 1.666,2.666 3.334,5.334 5,8 -3.334,-0.666 -6.668,-1.334 -10,-2 1.332,3.333 2.666,6.667 4,10 -3.334,-1.333 -6.668,-2.667 -10,-4 0.666,3.333 1.334,6.667 2,10 -3,-2 -6,-4 -9,-6 0,3.333 0,6.667 0,10 -2.666,-2.333 -5.334,-4.667 -8,-7 -0.334,3.666 -0.666,7.334 -1,11 -0.666,-0.333 -1.334,-0.666 -2,-1 -1.666,-2.666 -3.334,-5.334 -5,-8 0,0.666 0,1.334 0,2 -1,2.666 -2,5.334 -3,8 -0.334,0 -0.668,0 -1,0 -1.334,-3 -2.668,-6 -4,-9 -0.334,0 -0.668,0 -1,0 -1.333,2.666 -2.667,5.334 -4,8 -0.333,0 -0.667,0 -1,0 -0.667,-3.333 -1.333,-6.667 -2,-10 -0.667,0.334 -1.333,0.667 -2,1 -1.497,3.634 -2.642,5.188 -6,7 0,-3.333 0,-6.667 0,-10 -2.999,2 -6.001,4 -9,6 0.667,-3.666 1.333,-7.334 2,-11 -3.333,2 -6.667,4 -10,6 1,-3 2,-6 3,-9 -3.333,0.666 -6.667,1.334 -10,2 1.667,-3.333 3.333,-6.667 5,-10 -3.667,0.666 -7.333,1.334 -11,2 0.667,-0.666 1.333,-1.334 2,-2 1.667,-2.333 3.333,-4.667 5,-7 -3.667,0 -7.333,0 -11,0 1,-1.333 2,-2.667 3,-4 1.667,-1.333 3.333,-2.667 5,-4 -3.667,-0.333 -7.333,-0.666 -11,-1 0.333,-0.666 0.667,-1.334 1,-2 2.667,-1.666 5.333,-3.334 8,-5 -3.333,-1.333 -6.667,-2.667 -10,-4 3.333,-1 6.667,-2 10,-3 -2.999,-2.333 -6.001,-4.667 -9,-7 3.667,-0.333 7.333,-0.666 11,-1 -1.333,-1.666 -2.667,-3.334 -4,-5 -1.333,-1 -2.667,-2 -4,-3 3.667,0 7.333,0 11,0 -1,-1 -2,-2 -3,-3 -1.333,-2 -2.667,-4 -4,-6 3.667,0.666 7.333,1.334 11,2 -1.667,-3.333 -3.333,-6.667 -5,-10 3.667,1.333 7.333,2.667 11,4 -0.667,-3.333 -1.333,-6.667 -2,-10 2.667,1.666 5.333,3.334 8,5 -0.333,-3.666 -0.667,-7.334 -1,-11 2.333,2.333 4.667,4.667 7,7 0.667,-0.333 1.333,-0.666 2,-1 0.333,-3.333 0.667,-6.667 1,-10 1.587,3.77 3.481,6.127 7,8 0.667,-3 1.333,-6 2,-9 0.333,0.666 0.667,1.334 1,2 1.333,2.333 2.667,4.667 4,7 0.332,0 0.666,0 1,0 1,-3.333 2,-6.667 3,-10 z"
   id="path126"
   style="fill:#434e52" />
		<circle
   cx="64.994003"
   cy="1058.896"
   r="25.51"
   id="circle128"
   style="fill:#f4f4f4" />
		<circle
   enable-background="new    "
   cx="65.544998"
   cy="1059.826"
   r="6.2389998"
   id="circle130"
   style="opacity:0.1" />
		<circle
   cx="64.994003"
   cy="1058.897"
   r="2.552"
   id="circle132"
   style="fill:#f67876" />
		<path
   d="m 64.994,1024.5 c -18.945,0 -34.303,15.355 -34.303,34.302 0,18.944 15.358,34.302 34.303,34.302 18.945,0 34.302,-15.356 34.302,-34.302 0,-18.947 -15.357,-34.302 -34.302,-34.302 z m 0,59.813 c -14.089,0 -25.51,-11.422 -25.51,-25.511 0,-14.089 11.42,-25.51 25.51,-25.51 14.088,0 25.51,11.421 25.51,25.51 0,14.089 -11.421,25.511 -25.51,25.511 z"
   id="path134"
   style="fill:#4a8d8a" />
		<path
   d="m 64.995,1038.25 c -11.351,0 -20.553,9.2 -20.553,20.552 0,11.352 9.202,20.552 20.553,20.552 11.351,0 20.552,-9.2 20.552,-20.552 -10e-4,-11.352 -9.201,-20.552 -20.552,-20.552 z m 0,35.836 c -8.442,0 -15.284,-6.843 -15.284,-15.284 0,-8.44 6.842,-15.284 15.284,-15.284 8.44,0 15.284,6.844 15.284,15.284 0,8.441 -6.843,15.284 -15.284,15.284 z"
   id="path136"
   style="fill:#4a8d8a" />
		<circle
   stroke-miterlimit="10"
   cx="64.994003"
   cy="1058.897"
   r="4.8049998"
   id="circle138"
   style="fill:none;stroke:#3b556c;stroke-width:10;stroke-miterlimit:10" />
	</g><g
   style="opacity:0.3"
   id="Exercice_rédactionnel">
		<path
   d="m 62.488,504.713 c 2.13,2.406 3.408,10.18 6,9 1.334,-2.666 2.668,-5.334 4,-8 0.334,0 0.666,0 1,0 0.334,3.666 0.666,7.334 1,11 3,-2.334 6,-4.668 9,-7 -0.334,3.332 -0.666,6.666 -1,10 3,-2 6,-4 9,-6 -0.666,3.666 -1.334,7.334 -2,11 3.334,-1.666 6.668,-3.334 10,-5 -1.332,3.332 -2.666,6.666 -4,10 3.334,-0.666 6.668,-1.334 10,-2 0,0.334 0,0.666 0,1 -1.666,2.666 -3.334,5.334 -5,8 3.666,-0.334 7.334,-0.666 11,-1 -2.332,2.666 -4.666,5.334 -7,8 0.666,0 1.334,0 2,0 2.666,0.334 5.334,0.666 8,1 -2.666,2 -5.334,4 -8,6 0.334,0.666 0.666,1.334 1,2 3,0.666 6,1.334 9,2 0,0.334 0,0.666 0,1 -3,1.332 -6,2.666 -9,4 0,0.334 0,0.666 0,1 2.666,1.332 5.334,2.666 8,4 0,0.334 0,0.666 0,1 -3,0.666 -6,1.334 -9,2 0.334,0.666 0.666,1.334 1,2 2.334,1.666 4.668,3.334 7,5 -3.332,0.334 -6.666,0.666 -10,1 2.334,2.666 4.668,5.334 7,8 -3.666,0 -7.334,0 -11,0 1.666,2.666 3.334,5.334 5,8 -3.332,-0.666 -6.666,-1.334 -10,-2 1.334,3.332 2.668,6.666 4,10 -3.332,-1.334 -6.666,-2.668 -10,-4 0.666,3.332 1.334,6.666 2,10 -3,-2 -6,-4 -9,-6 0,3.332 0,6.666 0,10 -2.666,-2.334 -5.334,-4.668 -8,-7 -0.334,3.666 -0.666,7.334 -1,11 -0.666,-0.334 -1.334,-0.666 -2,-1 -1.666,-2.666 -3.334,-5.334 -5,-8 0,0.666 0,1.334 0,2 -1,2.666 -2,5.334 -3,8 -0.334,0 -0.666,0 -1,0 -1.332,-3 -2.667,-6 -4,-9 -0.333,0 -0.667,0 -1,0 -1.333,2.666 -2.667,5.334 -4,8 -0.333,0 -0.667,0 -1,0 -0.667,-3.334 -1.333,-6.668 -2,-10 -0.667,0.334 -1.333,0.666 -2,1 -1.497,3.633 -2.642,5.188 -6,7 0,-3.334 0,-6.668 0,-10 -2.999,2 -6.001,4 -9,6 0.667,-3.666 1.333,-7.334 2,-11 -3.333,2 -6.667,4 -10,6 1,-3 2,-6 3,-9 -3.333,0.666 -6.667,1.334 -10,2 1.667,-3.334 3.333,-6.668 5,-10 -3.667,0.666 -7.333,1.334 -11,2 0.667,-0.666 1.333,-1.334 2,-2 1.667,-2.334 3.333,-4.668 5,-7 -3.667,0 -7.333,0 -11,0 1,-1.334 2,-2.668 3,-4 1.667,-1.334 3.333,-2.668 5,-4 -3.667,-0.334 -7.333,-0.666 -11,-1 0.333,-0.666 0.667,-1.334 1,-2 2.667,-1.666 5.333,-3.334 8,-5 -3.333,-1.334 -6.667,-2.668 -10,-4 3.333,-1 6.667,-2 10,-3 -2.999,-2.334 -6.001,-4.668 -9,-7 3.667,-0.334 7.333,-0.666 11,-1 -1.333,-1.666 -2.667,-3.334 -4,-5 -1.333,-1 -2.667,-2 -4,-3 3.667,0 7.333,0 11,0 -1,-1 -2,-2 -3,-3 -1.333,-2 -2.667,-4 -4,-6 3.667,0.666 7.333,1.334 11,2 -1.667,-3.334 -3.333,-6.668 -5,-10 3.667,1.332 7.333,2.666 11,4 -0.667,-3.334 -1.333,-6.668 -2,-10 2.667,1.666 5.333,3.334 8,5 -0.333,-3.666 -0.667,-7.334 -1,-11 2.333,2.332 4.667,4.666 7,7 0.667,-0.334 1.333,-0.666 2,-1 0.333,-3.334 0.667,-6.668 1,-10 1.587,3.769 3.481,6.127 7,8 0.667,-3 1.333,-6 2,-9 0.333,0.666 0.667,1.334 1,2 1.333,2.332 2.667,4.666 4,7 0.333,0 0.667,0 1,0 1.001,-3.334 2,-6.668 3,-10 z"
   id="path141"
   style="fill:#434e52" />
		<g
   style=""
   id="g193">
			<g
   style=""
   id="g145">
				<path
   stroke-miterlimit="10"
   d="m 76.541,536.588 c 0.988,0 1.801,0.813 1.801,1.803 v 51.646 c 0,0.988 -0.813,1.801 -1.801,1.801 H 30.965 c -0.99,0 -1.801,-0.813 -1.801,-1.801 v -58.762 c 0,-0.992 0.811,-1.804 1.801,-1.804 h 38.207 c 0.99,0 1.801,0.812 1.801,1.804 v 3.512 c 0,0.99 0.812,1.801 1.801,1.801 z"
   id="path143"
   style="fill:#e0e2e0;stroke:#231f20;stroke-miterlimit:10" />
			</g>
			<rect
   x="35.287998"
   y="534.99402"
   width="12.249"
   height="12.248"
   id="rect147"
   style="fill:#4a8d8a" />
			<rect
   x="49.644001"
   y="535.07001"
   width="17.938"
   height="1.5140001"
   id="rect149"
   style="fill:#f67876" />
			<rect
   x="49.660999"
   y="539.14099"
   width="21.392"
   height="1.515"
   id="rect151"
   style="fill:#f67876" />
			<rect
   x="49.660999"
   y="542.68799"
   width="21.392"
   height="1.515"
   id="rect153"
   style="fill:#f67876" />
			<rect
   x="49.813"
   y="545.90198"
   width="21.464001"
   height="1.6900001"
   id="rect155"
   style="fill:#f67876" />
			<rect
   x="34.349998"
   y="556.40997"
   width="39.179001"
   height="1.6900001"
   id="rect157"
   style="fill:#231f20" />
			<rect
   x="34.500999"
   y="560.46301"
   width="39.179001"
   height="1.691"
   id="rect159"
   style="fill:#231f20" />
			<rect
   x="34.500999"
   y="564.51599"
   width="39.179001"
   height="1.691"
   id="rect161"
   style="fill:#231f20" />
			<rect
   x="34.652"
   y="584.03101"
   width="39.179001"
   height="1.688"
   id="rect163"
   style="fill:#231f20" />
			<polygon
   points="57.333,573.805 57.333,578.174 62.525,579.09 67.572,576.008 68.365,571.674 67.093,569.531 63.832,568.424 63.75,568.09 60.401,568.842 "
   id="polygon165"
   style="fill:#ffffff" />
			<polygon
   points="71.053,571.596 90.037,552.18 101.204,540.654 95.529,535.07 83.631,547.242 65.62,565.361 "
   id="polygon167"
   style="fill:#4a8d8a" />
			<path
   d="m 78.465,536.496 c 0.594,0.576 0.799,1.328 0.461,1.682 v 0 c -0.338,0.351 -1.098,0.164 -1.691,-0.41 l -7.068,-6.858 c -0.596,-0.576 -0.803,-1.328 -0.462,-1.678 v 0 c 0.339,-0.353 1.099,-0.169 1.692,0.407 z"
   id="path169"
   style="fill:#231f20" />
			<g
   style=""
   id="g173">
				<path
   style=""
   d="m 55.577,580.77 v -1.004 c 0,-0.303 0.043,-7.481 3.791,-11.192 1.129,-1.119 2.623,-1.734 4.207,-1.734 1.584,0 3.073,0.617 4.194,1.736 1.125,1.125 1.742,2.621 1.742,4.211 -0.003,1.586 -0.621,3.076 -1.744,4.192 -3.732,3.722 -10.886,3.787 -11.188,3.787 z m 7.998,-11.932 c -1.054,0 -2.048,0.41 -2.8,1.154 -2.389,2.365 -2.993,6.719 -3.146,8.719 1.998,-0.158 6.344,-0.773 8.729,-3.148 0.742,-0.737 1.152,-1.727 1.154,-2.776 0,-1.058 -0.41,-2.049 -1.156,-2.795 -0.743,-0.746 -1.731,-1.154 -2.781,-1.154 z"
   id="path171" />
			</g>
			<g
   style=""
   id="g177">
				<path
   style=""
   d="m 56.577,580.766 c -0.256,0 -0.513,-0.098 -0.707,-0.293 -0.392,-0.391 -0.392,-1.022 0,-1.414 l 5.657,-5.655 c 0.391,-0.392 1.022,-0.392 1.414,0 0.391,0.391 0.391,1.022 0,1.414 l -5.657,5.655 c -0.194,0.195 -0.451,0.293 -0.707,0.293 z"
   id="path175" />
			</g>
			<g
   style=""
   id="g181">
				<path
   style=""
   d="m 70.488,572.512 v 0 c -0.266,0 -0.521,-0.104 -0.707,-0.293 l -5.655,-5.658 c -0.392,-0.391 -0.392,-1.021 0,-1.414 l 31.11,-31.11 c 0.188,-0.188 0.441,-0.293 0.707,-0.293 v 0 c 0.266,0 0.521,0.104 0.707,0.293 l 5.656,5.658 c 0.391,0.391 0.391,1.021 0,1.411 l -31.111,31.113 c -0.187,0.187 -0.442,0.293 -0.707,0.293 z m -4.242,-6.658 4.24,4.244 29.699,-29.698 -4.242,-4.242 z"
   id="path179" />
			</g>
			<g
   style=""
   id="g185">
				<path
   style=""
   d="m 77.559,548.471 c -0.256,0 -0.512,-0.098 -0.707,-0.293 -0.391,-0.391 -0.391,-1.022 0,-1.414 l 11.313,-11.313 c 1.948,-1.949 5.123,-1.949 7.071,0 0.392,0.391 0.392,1.022 0,1.414 -0.391,0.391 -1.022,0.391 -1.414,0 -1.17,-1.17 -3.074,-1.17 -4.243,0 l -11.313,11.313 c -0.196,0.195 -0.452,0.293 -0.707,0.293 z"
   id="path183" />
			</g>
			<g
   style=""
   id="g189">
				<path
   style=""
   d="m 90.287,552.715 c -0.256,0 -0.512,-0.1 -0.707,-0.295 l -5.655,-5.656 c -0.392,-0.391 -0.392,-1.022 0,-1.414 0.392,-0.391 1.022,-0.391 1.414,0 l 5.655,5.656 c 0.393,0.392 0.393,1.023 0,1.414 -0.194,0.195 -0.451,0.295 -0.707,0.295 z"
   id="path187" />
			</g>
			<path
   d="m 71.277,531.988 4.129,4.006 c 0,0 -3.203,0.317 -3.62,-0.166 -0.417,-0.484 -0.509,-3.84 -0.509,-3.84 z"
   id="path191"
   style="fill:#e0e2e0" />
		</g>
	</g><g
   style="opacity:0.3"
   id="Exercice">
		<path
   d="m 62.488,255.168 c 2.13,2.406 3.408,10.181 6,9 1.334,-2.666 2.668,-5.334 4,-8 0.334,0 0.666,0 1,0 0.334,3.666 0.666,7.334 1,11 3,-2.333 6,-4.667 9,-7 -0.334,3.333 -0.666,6.667 -1,10 3,-2 6,-4 9,-6 -0.666,3.666 -1.334,7.334 -2,11 3.334,-1.666 6.668,-3.334 10,-5 -1.332,3.333 -2.666,6.667 -4,10 3.334,-0.666 6.668,-1.334 10,-2 0,0.334 0,0.667 0,1 -1.666,2.666 -3.334,5.334 -5,8 3.666,-0.333 7.334,-0.666 11,-1 -2.332,2.666 -4.666,5.334 -7,8 0.666,0 1.334,0 2,0 2.666,0.334 5.334,0.667 8,1 -2.666,2 -5.334,4 -8,6 0.334,0.666 0.666,1.334 1,2 3,0.666 6,1.334 9,2 0,0.334 0,0.667 0,1 -3,1.333 -6,2.667 -9,4 0,0.334 0,0.667 0,1 2.666,1.333 5.334,2.667 8,4 0,0.334 0,0.667 0,1 -3,0.666 -6,1.334 -9,2 0.334,0.666 0.666,1.334 1,2 2.334,1.666 4.668,3.334 7,5 -3.332,0.334 -6.666,0.667 -10,1 2.334,2.666 4.668,5.334 7,8 -3.666,0 -7.334,0 -11,0 1.666,2.666 3.334,5.334 5,8 -3.332,-0.666 -6.666,-1.334 -10,-2 1.334,3.333 2.668,6.667 4,10 -3.332,-1.333 -6.666,-2.667 -10,-4 0.666,3.333 1.334,6.667 2,10 -3,-2 -6,-4 -9,-6 0,3.333 0,6.667 0,10 -2.666,-2.333 -5.334,-4.667 -8,-7 -0.334,3.666 -0.666,7.334 -1,11 -0.666,-0.333 -1.334,-0.666 -2,-1 -1.666,-2.666 -3.334,-5.334 -5,-8 0,0.666 0,1.334 0,2 -1,2.666 -2,5.334 -3,8 -0.334,0 -0.666,0 -1,0 -1.332,-3 -2.667,-6 -4,-9 -0.333,0 -0.667,0 -1,0 -1.333,2.666 -2.667,5.334 -4,8 -0.333,0 -0.667,0 -1,0 -0.667,-3.333 -1.333,-6.667 -2,-10 -0.667,0.334 -1.333,0.667 -2,1 -1.497,3.633 -2.642,5.188 -6,7 0,-3.333 0,-6.667 0,-10 -2.999,2 -6.001,4 -9,6 0.667,-3.666 1.333,-7.334 2,-11 -3.333,2 -6.667,4 -10,6 1,-3 2,-6 3,-9 -3.333,0.666 -6.667,1.334 -10,2 1.667,-3.333 3.333,-6.667 5,-10 -3.667,0.666 -7.333,1.334 -11,2 0.667,-0.666 1.333,-1.334 2,-2 1.667,-2.333 3.333,-4.667 5,-7 -3.667,0 -7.333,0 -11,0 1,-1.333 2,-2.667 3,-4 1.667,-1.333 3.333,-2.667 5,-4 -3.667,-0.333 -7.333,-0.666 -11,-1 0.333,-0.666 0.667,-1.334 1,-2 2.667,-1.666 5.333,-3.334 8,-5 -3.333,-1.333 -6.667,-2.667 -10,-4 3.333,-1 6.667,-2 10,-3 -2.999,-2.333 -6.001,-4.667 -9,-7 3.667,-0.333 7.333,-0.666 11,-1 -1.333,-1.666 -2.667,-3.334 -4,-5 -1.333,-1 -2.667,-2 -4,-3 3.667,0 7.333,0 11,0 -1,-1 -2,-2 -3,-3 -1.333,-2 -2.667,-4 -4,-6 3.667,0.666 7.333,1.334 11,2 -1.667,-3.333 -3.333,-6.667 -5,-10 3.667,1.333 7.333,2.667 11,4 -0.667,-3.333 -1.333,-6.667 -2,-10 2.667,1.666 5.333,3.334 8,5 -0.333,-3.666 -0.667,-7.334 -1,-11 2.333,2.333 4.667,4.667 7,7 0.667,-0.333 1.333,-0.666 2,-1 0.333,-3.333 0.667,-6.667 1,-10 1.587,3.769 3.481,6.127 7,8 0.667,-3 1.333,-6 2,-9 0.333,0.666 0.667,1.334 1,2 1.333,2.333 2.667,4.667 4,7 0.333,0 0.667,0 1,0 1.001,-3.333 2,-6.667 3,-10 z"
   id="path196"
   style="fill:#434e52" />
		<path
   id="clipboard-list"
   d="m 47.658,281.206 c 0,-1.297 1.04,-2.331 2.322,-2.331 h 4.676 v 0 -2.337 c 0,-2.565 2.093,-4.661 4.677,-4.661 h 2.31 c 2.59,0 4.678,2.087 4.678,4.661 v 2.337 h 4.675 c 1.284,0 2.323,1.044 2.323,2.331 v 2.337 c 0,1.297 -1.039,2.331 -2.323,2.331 H 49.98 c -1.285,0 -2.322,-1.043 -2.322,-2.331 v -2.337 m 27.994,0.002 h 2.338 c 2.582,0 4.66,2.092 4.66,4.675 v 48.972 c 0,2.6 -2.086,4.675 -4.66,4.675 H 42.987 c -2.582,0 -4.66,-2.092 -4.66,-4.675 v -48.972 c 0,-2.599 2.085,-4.675 4.66,-4.675 h 2.338 c 0,0.005 0,0.01 0,0.012 v 2.31 c 0,2.584 2.084,4.678 4.672,4.678 h 20.981 c 2.582,0 4.672,-2.087 4.672,-4.678 v -2.31 c 0.002,-0.002 0.002,-0.007 0.002,-0.012 z m -15.163,-2.333 c 0.645,0 1.166,-0.523 1.166,-1.166 0,-0.643 -0.521,-1.167 -1.166,-1.167 -0.645,0 -1.167,0.524 -1.167,1.167 0,0.643 0.522,1.166 1.167,1.166 z m -3.5,20.996 v 2.333 h 18.664 v -2.333 z m -11.664,-2.333 v 6.998 h 6.999 v -6.998 z m 2.333,2.333 v 2.333 h 2.333 v -2.333 z m -2.333,9.331 v 6.998 h 6.999 v -6.998 z m 2.333,2.333 v 2.333 h 2.333 v -2.333 z m 9.331,0 v 2.333 h 18.664 v -2.333 z m -11.664,9.331 v 6.999 h 6.999 v -6.999 z m 2.333,2.333 v 2.333 h 2.333 v -2.333 z m 9.331,0 v 2.333 h 18.664 v -2.333 z"
   style="fill:#e0e2e0" />
		<path
   d="m 49.98,285.874 h 21.015 c 1.284,0 2.323,-1.034 2.323,-2.331 v -2.337 c 0,-1.287 -1.039,-2.331 -2.323,-2.331 H 66.32 v -2.337 c 0,-2.574 -2.088,-4.661 -4.678,-4.661 h -2.31 c -2.583,0 -4.677,2.096 -4.677,4.661 v 2.337 H 49.98 c -1.283,0 -2.322,1.034 -2.322,2.331 v 2.337 c 0,1.288 1.038,2.331 2.322,2.331 z m 10.509,-9.332 c 0.645,0 1.166,0.524 1.166,1.167 0,0.643 -0.521,1.166 -1.166,1.166 -0.645,0 -1.167,-0.523 -1.167,-1.166 0,-0.643 0.522,-1.167 1.167,-1.167 z"
   id="path199"
   style="fill:#f67876" />
		<path
   d="m 54.534,294.416 c -0.146,-0.146 -0.383,-0.146 -0.528,0 l -5.557,5.531 c -0.145,0.146 -0.383,0.146 -0.528,0 l -2.435,-2.479 c -0.072,-0.073 -0.166,-0.109 -0.262,-0.109 -0.096,-0.002 -0.193,0.034 -0.266,0.109 l -1.076,0.968 c -0.072,0.072 -0.11,0.165 -0.11,0.261 0,0.098 0.039,0.197 0.111,0.271 l 2.455,2.576 c 0.146,0.148 0.384,0.385 0.528,0.531 l 1.056,1.064 c 0.146,0.146 0.382,0.146 0.528,0 l 7.139,-7.127 c 0.146,-0.146 0.146,-0.386 0,-0.531 z"
   id="path201"
   style="fill:#4a8d8a" />
	</g><g
   style="opacity:0.3"
   id="Introduction">
		<path
   d="m 64.544,130.396 c 2.129,2.406 3.407,10.181 6,9 1.333,-2.666 2.667,-5.334 4,-8 0.334,0 0.666,0 1,0 0.334,3.666 0.666,7.334 1,11 3,-2.333 6,-4.667 9,-7 -0.334,3.333 -0.666,6.667 -1,10 3,-2 6,-4 9,-6 -0.666,3.666 -1.334,7.334 -2,11 3.333,-1.666 6.667,-3.334 10,-5 -1.333,3.333 -2.667,6.667 -4,10 3.333,-0.666 6.667,-1.334 10,-2 0,0.334 0,0.667 0,1 -1.666,2.666 -3.334,5.334 -5,8 3.666,-0.333 7.334,-0.666 11,-1 -2.333,2.666 -4.667,5.334 -7,8 0.666,0 1.334,0 2,0 2.666,0.334 5.334,0.667 8,1 -2.666,2 -5.334,4 -8,6 0.334,0.666 0.666,1.334 1,2 3,0.666 6,1.334 9,2 0,0.334 0,0.667 0,1 -3,1.333 -6,2.667 -9,4 0,0.334 0,0.667 0,1 2.666,1.333 5.334,2.667 8,4 0,0.334 0,0.667 0,1 -3,0.666 -6,1.334 -9,2 0.334,0.666 0.666,1.334 1,2 2.333,1.666 4.667,3.334 7,5 -3.333,0.334 -6.667,0.667 -10,1 2.333,2.666 4.667,5.334 7,8 -3.666,0 -7.334,0 -11,0 1.666,2.666 3.334,5.334 5,8 -3.333,-0.666 -6.667,-1.334 -10,-2 1.333,3.333 2.667,6.667 4,10 -3.333,-1.333 -6.667,-2.667 -10,-4 0.666,3.333 1.334,6.667 2,10 -3,-2 -6,-4 -9,-6 0,3.333 0,6.667 0,10 -2.666,-2.333 -5.334,-4.667 -8,-7 -0.334,3.666 -0.666,7.334 -1,11 -0.666,-0.333 -1.334,-0.666 -2,-1 -1.666,-2.666 -3.334,-5.334 -5,-8 0,0.666 0,1.334 0,2 -1,2.666 -2,5.334 -3,8 -0.334,0 -0.667,0 -1,0 -1.333,-3 -2.667,-6 -4,-9 -0.333,0 -0.667,0 -1,0 -1.333,2.666 -2.667,5.334 -4,8 -0.333,0 -0.667,0 -1,0 -0.667,-3.333 -1.333,-6.667 -2,-10 -0.667,0.334 -1.333,0.667 -2,1 -1.497,3.633 -2.642,5.188 -6,7 0,-3.333 0,-6.667 0,-10 -2.999,2 -6.001,4 -9,6 0.667,-3.666 1.333,-7.334 2,-11 -3.333,2 -6.667,4 -10,6 1,-3 2,-6 3,-9 -3.333,0.666 -6.667,1.334 -10,2 1.667,-3.333 3.333,-6.667 5,-10 -3.667,0.666 -7.333,1.334 -11,2 0.667,-0.666 1.333,-1.334 2,-2 1.667,-2.333 3.333,-4.667 5,-7 -3.667,0 -7.333,0 -11,0 1,-1.333 2,-2.667 3,-4 1.667,-1.333 3.333,-2.667 5,-4 -3.667,-0.333 -7.333,-0.666 -11,-1 0.333,-0.666 0.667,-1.334 1,-2 2.667,-1.666 5.333,-3.334 8,-5 -3.333,-1.333 -6.667,-2.667 -10,-4 3.333,-1 6.667,-2 10,-3 -2.999,-2.333 -6.001,-4.667 -9,-7 3.667,-0.333 7.333,-0.666 11,-1 -1.333,-1.666 -2.667,-3.334 -4,-5 -1.333,-1 -2.667,-2 -4,-3 3.667,0 7.333,0 11,0 -1,-1 -2,-2 -3,-3 -1.333,-2 -2.667,-4 -4,-6 3.667,0.666 7.333,1.334 11,2 -1.667,-3.333 -3.333,-6.667 -5,-10 3.667,1.333 7.333,2.667 11,4 -0.667,-3.333 -1.333,-6.667 -2,-10 2.667,1.666 5.333,3.334 8,5 -0.333,-3.666 -0.667,-7.334 -1,-11 2.333,2.333 4.667,4.667 7,7 0.667,-0.333 1.333,-0.666 2,-1 0.333,-3.333 0.667,-6.667 1,-10 1.587,3.769 3.481,6.127 7,8 0.667,-3 1.333,-6 2,-9 0.333,0.666 0.667,1.334 1,2 1.333,2.333 2.667,4.667 4,7 0.333,0 0.667,0 1,0 1,-3.333 2,-6.667 3,-10 z"
   id="path204"
   style="fill:#434e52" />
		<path
   d="m 63.348,192.899 c 2.484,0.579 4.989,-0.979 5.568,-3.461 l 1.686,-7.225 c 0.211,-0.903 1.219,-1.145 1.791,-0.535 1.196,0.994 2.619,2.04 3.748,2.304 3.159,0.737 6.223,-1.167 6.961,-4.327 0.736,-3.161 -1.168,-6.223 -4.328,-6.961 -1.127,-0.264 -2.867,0.045 -4.379,0.406 -0.783,0.293 -1.527,-0.594 -1.369,-1.272 l 2.213,-9.481 c 0.578,-2.483 -0.979,-4.988 -3.463,-5.568 l -5.418,-1.265 c -1.354,-0.315 -2.799,0.775 -2.664,2.235 0.188,1.234 0.15,2.416 -0.008,3.092 -0.736,3.162 -3.801,5.065 -6.959,4.327 -3.162,-0.737 -5.064,-3.8 -4.327,-6.96 0.158,-0.678 0.648,-1.754 1.363,-2.777 0.541,-1.302 -0.046,-2.867 -1.4,-3.183 l -5.418,-1.265 c -2.484,-0.58 -4.99,0.979 -5.569,3.462 l -6.321,27.091 c -0.58,2.482 0.979,4.988 3.462,5.568 z"
   id="path206"
   style="fill:#ffffff" />
		<path
   d="m 37.936,173.974 c -2.548,0.102 -4.55,2.268 -4.45,4.816 l 0.292,7.412 c 0.036,0.927 -0.872,1.426 -1.585,0.991 -1.416,-0.641 -3.066,-1.271 -4.224,-1.226 -3.242,0.127 -5.69,2.775 -5.562,6.019 0.128,3.244 2.776,5.69 6.019,5.563 1.158,-0.047 2.753,-0.806 4.115,-1.555 0.677,-0.491 1.631,0.167 1.658,0.862 l 0.382,9.729 c 0.101,2.549 2.269,4.551 4.816,4.45 l 5.559,-0.219 c 1.39,-0.056 2.493,-1.491 1.976,-2.862 -0.509,-1.14 -0.787,-2.289 -0.813,-2.984 -0.129,-3.243 2.32,-5.891 5.562,-6.019 3.244,-0.128 5.891,2.319 6.02,5.563 0.027,0.695 -0.159,1.862 -0.577,3.04 -0.176,1.398 0.805,2.751 2.194,2.697 l 5.559,-0.22 c 2.549,-0.101 4.551,-2.267 4.452,-4.815 l -1.097,-27.797 c -0.1,-2.548 -2.268,-4.55 -4.815,-4.449 z"
   id="path208"
   style="fill:#e0e2e0" />
		<path
   d="m 44.144,187.063 c -2.218,1.259 -3.003,4.103 -1.746,6.32 l 3.659,6.453 c 0.458,0.808 -0.121,1.668 -0.954,1.608 -1.552,0.079 -3.308,0.276 -4.316,0.848 -2.822,1.601 -3.783,5.076 -2.183,7.899 1.602,2.823 5.077,3.783 7.9,2.184 1.008,-0.572 2.077,-1.978 2.944,-3.269 0.376,-0.747 1.526,-0.599 1.869,0.006 l 4.802,8.47 c 1.259,2.219 4.103,3.004 6.32,1.746 l 4.84,-2.744 c 1.209,-0.687 1.531,-2.467 0.443,-3.449 -0.975,-0.779 -1.75,-1.674 -2.092,-2.278 -1.602,-2.823 -0.641,-6.3 2.182,-7.899 2.824,-1.602 6.299,-0.641 7.9,2.183 0.342,0.604 0.712,1.728 0.881,2.965 0.485,1.323 1.979,2.076 3.188,1.39 l 4.839,-2.744 c 2.219,-1.258 3.005,-4.102 1.747,-6.32 L 72.645,176.234 c -1.258,-2.218 -4.103,-3.004 -6.32,-1.745 z"
   id="path210"
   style="fill:#4a8d8a" />
		<path
   d="m 81.257,161.645 c -1.983,-1.604 -4.916,-1.294 -6.521,0.688 l -4.666,5.768 c -0.582,0.722 -1.596,0.498 -1.844,-0.299 -0.644,-1.416 -1.469,-2.978 -2.369,-3.706 -2.522,-2.041 -6.109,-1.662 -8.15,0.86 -2.041,2.523 -1.662,6.109 0.86,8.15 0.901,0.729 2.601,1.21 4.119,1.543 0.834,0.077 1.117,1.201 0.68,1.742 l -6.125,7.569 c -1.604,1.983 -1.293,4.917 0.689,6.521 l 4.325,3.499 c 1.082,0.875 2.857,0.522 3.372,-0.851 0.369,-1.191 0.917,-2.239 1.354,-2.779 2.041,-2.524 5.629,-2.902 8.15,-0.861 2.523,2.042 2.902,5.627 0.861,8.15 -0.438,0.541 -1.348,1.296 -2.438,1.906 -1.054,0.936 -1.207,2.6 -0.127,3.475 l 4.325,3.499 c 1.983,1.604 4.917,1.295 6.521,-0.688 l 17.496,-21.628 c 1.604,-1.982 1.293,-4.916 -0.688,-6.521 z"
   id="path212"
   style="fill:#f67876" />
	</g><g
   style="opacity:0.3"
   id="Conclusion">
		<path
   d="m 62.488,629.484 c 2.13,2.405 3.408,10.181 6,9 1.334,-2.666 2.668,-5.334 4,-8 0.334,0 0.666,0 1,0 0.334,3.666 0.666,7.334 1,11 3,-2.333 6,-4.667 9,-7 -0.334,3.333 -0.666,6.667 -1,10 3,-2 6,-4 9,-6 -0.666,3.666 -1.334,7.334 -2,11 3.334,-1.666 6.668,-3.334 10,-5 -1.332,3.333 -2.666,6.667 -4,10 3.334,-0.666 6.668,-1.334 10,-2 0,0.334 0,0.667 0,1 -1.666,2.666 -3.334,5.334 -5,8 3.666,-0.333 7.334,-0.666 11,-1 -2.332,2.666 -4.666,5.334 -7,8 0.666,0 1.334,0 2,0 2.666,0.334 5.334,0.667 8,1 -2.666,2 -5.334,4 -8,6 0.334,0.666 0.666,1.334 1,2 3,0.666 6,1.334 9,2 0,0.334 0,0.667 0,1 -3,1.333 -6,2.667 -9,4 0,0.334 0,0.667 0,1 2.666,1.333 5.334,2.667 8,4 0,0.334 0,0.667 0,1 -3,0.666 -6,1.334 -9,2 0.334,0.666 0.666,1.334 1,2 2.334,1.666 4.668,3.334 7,5 -3.332,0.334 -6.666,0.667 -10,1 2.334,2.666 4.668,5.334 7,8 -3.666,0 -7.334,0 -11,0 1.666,2.666 3.334,5.334 5,8 -3.332,-0.666 -6.666,-1.334 -10,-2 1.334,3.333 2.668,6.667 4,10 -3.332,-1.333 -6.666,-2.667 -10,-4 0.666,3.333 1.334,6.667 2,10 -3,-2 -6,-4 -9,-6 0,3.333 0,6.667 0,10 -2.666,-2.333 -5.334,-4.667 -8,-7 -0.334,3.666 -0.666,7.334 -1,11 -0.666,-0.333 -1.334,-0.666 -2,-1 -1.666,-2.666 -3.334,-5.334 -5,-8 0,0.666 0,1.334 0,2 -1,2.666 -2,5.334 -3,8 -0.334,0 -0.666,0 -1,0 -1.332,-3 -2.667,-6 -4,-9 -0.333,0 -0.667,0 -1,0 -1.333,2.666 -2.667,5.334 -4,8 -0.333,0 -0.667,0 -1,0 -0.667,-3.333 -1.333,-6.667 -2,-10 -0.667,0.334 -1.333,0.667 -2,1 -1.497,3.633 -2.642,5.188 -6,7 0,-3.333 0,-6.667 0,-10 -2.999,2 -6.001,4 -9,6 0.667,-3.666 1.333,-7.334 2,-11 -3.333,2 -6.667,4 -10,6 1,-3 2,-6 3,-9 -3.333,0.666 -6.667,1.334 -10,2 1.667,-3.333 3.333,-6.667 5,-10 -3.667,0.666 -7.333,1.334 -11,2 0.667,-0.666 1.333,-1.334 2,-2 1.667,-2.333 3.333,-4.667 5,-7 -3.667,0 -7.333,0 -11,0 1,-1.333 2,-2.667 3,-4 1.667,-1.333 3.333,-2.667 5,-4 -3.667,-0.333 -7.333,-0.666 -11,-1 0.333,-0.666 0.667,-1.334 1,-2 2.667,-1.666 5.333,-3.334 8,-5 -3.333,-1.333 -6.667,-2.667 -10,-4 3.333,-1 6.667,-2 10,-3 -2.999,-2.333 -6.001,-4.667 -9,-7 3.667,-0.333 7.333,-0.666 11,-1 -1.333,-1.666 -2.667,-3.334 -4,-5 -1.333,-1 -2.667,-2 -4,-3 3.667,0 7.333,0 11,0 -1,-1 -2,-2 -3,-3 -1.333,-2 -2.667,-4 -4,-6 3.667,0.666 7.333,1.334 11,2 -1.667,-3.333 -3.333,-6.667 -5,-10 3.667,1.333 7.333,2.667 11,4 -0.667,-3.333 -1.333,-6.667 -2,-10 2.667,1.666 5.333,3.334 8,5 -0.333,-3.666 -0.667,-7.334 -1,-11 2.333,2.333 4.667,4.667 7,7 0.667,-0.333 1.333,-0.666 2,-1 0.333,-3.333 0.667,-6.667 1,-10 1.587,3.769 3.481,6.127 7,8 0.667,-3 1.333,-6 2,-9 0.333,0.666 0.667,1.334 1,2 1.333,2.333 2.667,4.667 4,7 0.333,0 0.667,0 1,0 1.001,-3.333 2,-6.667 3,-10 z"
   id="path215"
   style="fill:#434e52" />
		<path
   d="m 87.988,697.044 c 0.507,-2.035 -0.742,-4.114 -2.777,-4.622 l -5.919,-1.477 c -0.739,-0.186 -0.925,-1.018 -0.417,-1.479 0.832,-0.971 1.71,-2.128 1.939,-3.053 0.646,-2.589 -0.881,-5.132 -3.471,-5.777 -2.59,-0.645 -5.132,0.882 -5.777,3.472 -0.23,0.925 0,2.357 0.279,3.605 0.231,0.647 -0.508,1.249 -1.063,1.11 l -7.77,-1.938 c -2.035,-0.507 -4.115,0.743 -4.623,2.777 l -1.107,4.439 c -0.277,1.109 0.602,2.312 1.804,2.219 1.017,-0.14 1.988,-0.094 2.543,0.045 2.59,0.646 4.117,3.188 3.471,5.776 -0.646,2.592 -3.188,4.117 -5.777,3.473 -0.555,-0.14 -1.434,-0.556 -2.267,-1.155 -1.063,-0.461 -2.358,0.002 -2.635,1.111 l -1.107,4.438 c -0.508,2.035 0.742,4.115 2.776,4.623 l 22.198,5.536 c 2.035,0.508 4.115,-0.742 4.622,-2.777 z"
   id="path217"
   style="fill:#f67876" />
		<path
   d="m 48.579,712.871 c 2.035,0.507 4.115,-0.742 4.623,-2.777 l 1.476,-5.919 c 0.185,-0.74 1.017,-0.926 1.479,-0.417 0.972,0.831 2.128,1.709 3.053,1.94 2.589,0.646 5.132,-0.882 5.778,-3.472 0.646,-2.59 -0.881,-5.133 -3.471,-5.777 -0.926,-0.231 -2.358,0.001 -3.606,0.278 -0.647,0.231 -1.249,-0.508 -1.11,-1.063 l 1.938,-7.769 c 0.507,-2.034 -0.742,-4.115 -2.777,-4.623 l -4.439,-1.107 c -1.11,-0.276 -2.312,0.604 -2.219,1.805 0.139,1.019 0.094,1.988 -0.044,2.543 -0.646,2.591 -3.188,4.117 -5.778,3.473 -2.59,-0.646 -4.117,-3.188 -3.471,-5.778 0.138,-0.555 0.554,-1.434 1.155,-2.266 0.461,-1.064 -10e-4,-2.358 -1.111,-2.636 l -4.44,-1.107 c -2.034,-0.508 -4.115,0.742 -4.622,2.776 l -5.537,22.197 c -0.507,2.035 0.742,4.115 2.777,4.623 z"
   id="path219"
   style="fill:#ffffff" />
		<path
   d="m 72.23,657.805 c -2.035,-0.508 -4.114,0.742 -4.623,2.777 l -1.477,5.919 c -0.186,0.74 -1.018,0.926 -1.479,0.417 -0.973,-0.832 -2.129,-1.709 -3.053,-1.939 -2.589,-0.646 -5.133,0.882 -5.779,3.472 -0.646,2.59 0.881,5.132 3.471,5.776 0.925,0.23 2.358,-10e-4 3.606,-0.278 0.646,-0.23 1.248,0.508 1.109,1.063 l -1.938,7.771 c -0.508,2.035 0.742,4.113 2.777,4.623 l 4.438,1.105 c 1.11,0.277 2.312,-0.603 2.219,-1.804 -0.139,-1.019 -0.094,-1.988 0.045,-2.544 0.646,-2.589 3.188,-4.117 5.778,-3.471 2.589,0.646 4.117,3.188 3.471,5.777 -0.139,0.555 -0.554,1.434 -1.154,2.267 -0.463,1.063 0,2.357 1.11,2.636 l 4.438,1.106 c 2.035,0.508 4.115,-0.742 4.623,-2.776 l 5.537,-22.198 c 0.506,-2.033 -0.742,-4.114 -2.777,-4.621 z"
   id="path221"
   style="fill:#4a8d8a" />
		<path
   d="m 32.849,673.525 c -0.508,2.034 0.742,4.114 2.777,4.623 l 5.919,1.476 c 0.74,0.185 0.925,1.018 0.417,1.479 -0.832,0.972 -1.709,2.128 -1.94,3.053 -0.646,2.59 0.882,5.132 3.472,5.777 2.589,0.646 5.131,-0.881 5.777,-3.472 0.231,-0.925 -10e-4,-2.356 -0.279,-3.604 -0.232,-0.647 0.508,-1.25 1.063,-1.111 l 7.77,1.938 c 2.035,0.509 4.114,-0.74 4.622,-2.776 l 1.107,-4.439 c 0.276,-1.108 -0.604,-2.312 -1.805,-2.218 -1.018,0.139 -1.989,0.094 -2.543,-0.045 -2.59,-0.646 -4.117,-3.188 -3.471,-5.778 0.646,-2.589 3.188,-4.116 5.778,-3.471 0.555,0.139 1.434,0.554 2.266,1.154 1.064,0.462 2.359,-10e-4 2.637,-1.111 l 1.107,-4.438 c 0.506,-2.034 -0.742,-4.114 -2.777,-4.623 l -22.2,-5.537 c -2.035,-0.508 -4.115,0.742 -4.623,2.776 z"
   id="path223"
   style="fill:#e0e2e0" />
	</g>
<g
   style="opacity:0.3"
   id="Activité_d_x27_auto-évaluation_1_">
	<path
   style=""
   id="path227"
   d="M62,1124.5c2.129,2.406,3.407,10.181,6,9   c1.333-2.666,2.667-5.334,4-8c0.334,0,0.666,0,1,0c0.334,3.666,0.666,7.334,1,11c3-2.333,6-4.667,9-7   c-0.334,3.333-0.666,6.667-1,10c3-2,6-4,9-6c-0.666,3.666-1.334,7.334-2,11c3.333-1.666,6.667-3.334,10-5   c-1.333,3.333-2.667,6.667-4,10c3.333-0.666,6.667-1.334,10-2c0,0.334,0,0.667,0,1c-1.666,2.666-3.334,5.334-5,8   c3.666-0.333,7.334-0.666,11-1c-2.333,2.666-4.667,5.334-7,8c0.666,0,1.334,0,2,0c2.666,0.334,5.334,0.667,8,1   c-2.666,2-5.334,4-8,6c0.334,0.666,0.666,1.334,1,2c3,0.666,6,1.334,9,2c0,0.334,0,0.667,0,1c-3,1.333-6,2.667-9,4   c0,0.334,0,0.667,0,1c2.666,1.333,5.334,2.667,8,4c0,0.334,0,0.667,0,1c-3,0.666-6,1.334-9,2c0.334,0.666,0.666,1.334,1,2   c2.333,1.666,4.667,3.334,7,5c-3.333,0.334-6.667,0.667-10,1c2.333,2.666,4.667,5.334,7,8c-3.666,0-7.334,0-11,0   c1.666,2.666,3.334,5.334,5,8c-3.333-0.666-6.667-1.334-10-2c1.333,3.333,2.667,6.667,4,10c-3.333-1.333-6.667-2.667-10-4   c0.666,3.333,1.334,6.667,2,10c-3-2-6-4-9-6c0,3.333,0,6.667,0,10c-2.666-2.333-5.334-4.667-8-7c-0.334,3.666-0.666,7.334-1,11   c-0.666-0.333-1.334-0.666-2-1c-1.666-2.666-3.334-5.334-5-8c0,0.666,0,1.334,0,2c-1,2.666-2,5.334-3,8c-0.334,0-0.667,0-1,0   c-1.333-3-2.667-6-4-9c-0.333,0-0.667,0-1,0c-1.333,2.666-2.667,5.334-4,8c-0.333,0-0.667,0-1,0c-0.667-3.333-1.333-6.667-2-10   c-0.667,0.334-1.333,0.667-2,1c-1.497,3.633-2.642,5.188-6,7c0-3.333,0-6.667,0-10c-2.999,2-6.001,4-9,6   c0.667-3.666,1.333-7.334,2-11c-3.333,2-6.667,4-10,6c1-3,2-6,3-9c-3.333,0.666-6.667,1.334-10,2c1.667-3.333,3.333-6.667,5-10   c-3.667,0.666-7.333,1.334-11,2c0.667-0.666,1.333-1.334,2-2c1.667-2.333,3.333-4.667,5-7c-3.667,0-7.333,0-11,0   c1-1.333,2-2.667,3-4c1.667-1.333,3.333-2.667,5-4c-3.667-0.333-7.333-0.666-11-1c0.333-0.666,0.667-1.334,1-2   c2.667-1.666,5.333-3.334,8-5c-3.333-1.333-6.667-2.667-10-4c3.333-1,6.667-2,10-3c-2.999-2.333-6.001-4.667-9-7   c3.667-0.333,7.333-0.666,11-1c-1.333-1.666-2.667-3.334-4-5c-1.333-1-2.667-2-4-3c3.667,0,7.333,0,11,0c-1-1-2-2-3-3   c-1.333-2-2.667-4-4-6c3.667,0.666,7.333,1.334,11,2c-1.667-3.333-3.333-6.667-5-10c3.667,1.333,7.333,2.667,11,4   c-0.667-3.333-1.333-6.667-2-10c2.667,1.666,5.333,3.334,8,5c-0.333-3.666-0.667-7.334-1-11c2.333,2.333,4.667,4.667,7,7   c0.667-0.333,1.333-0.666,2-1c0.333-3.333,0.667-6.667,1-10c1.587,3.769,3.481,6.127,7,8c0.667-3,1.333-6,2-9   c0.333,0.666,0.667,1.334,1,2c1.333,2.333,2.667,4.667,4,7c0.333,0,0.667,0,1,0C60,1131.167,61,1127.833,62,1124.5z"
   fill="#434E52"
   clip-rule="evenodd"
   fill-rule="evenodd" />
	<path
   style=""
   d="M45.524,1152.186c0-1.297,1.039-2.331,2.322-2.331h4.676l0,0v-2.337   c0-2.565,2.094-4.661,4.677-4.661h2.311c2.59,0,4.676,2.087,4.676,4.661v2.337h4.676c1.285,0,2.324,1.044,2.324,2.331v2.337   c0,1.297-1.039,2.331-2.324,2.331H47.846c-1.285,0-2.322-1.043-2.322-2.331V1152.186 M73.518,1152.188h2.338   c2.582,0,4.66,2.092,4.66,4.675v48.972c0,2.6-2.086,4.675-4.66,4.675H40.852c-2.581,0-4.66-2.092-4.66-4.675v-48.972   c0-2.599,2.086-4.675,4.66-4.675h2.339c0,0.005,0,0.01,0,0.012v2.31c0,2.584,2.084,4.678,4.672,4.678h20.983   c2.58,0,4.672-2.087,4.672-4.678v-2.31C73.518,1152.197,73.518,1152.192,73.518,1152.188L73.518,1152.188L73.518,1152.188z    M58.354,1149.854c0.645,0,1.166-0.523,1.166-1.166s-0.521-1.167-1.166-1.167s-1.166,0.524-1.166,1.167   S57.709,1149.854,58.354,1149.854L58.354,1149.854z M54.855,1170.851v2.333h18.663v-2.333H54.855L54.855,1170.851z    M43.191,1168.518v6.998h6.998v-6.998H43.191L43.191,1168.518z M45.524,1170.851v2.333h2.332v-2.333H45.524L45.524,1170.851z    M43.191,1180.182v6.998h6.998v-6.998H43.191L43.191,1180.182z M45.524,1182.515v2.333h2.332v-2.333H45.524L45.524,1182.515z    M54.855,1182.515v2.333h18.663v-2.333H54.855L54.855,1182.515z M43.191,1191.846v6.999h6.998v-6.999H43.191L43.191,1191.846z    M45.524,1194.179v2.333h2.332v-2.333H45.524L45.524,1194.179z M54.855,1194.179v2.333h18.663v-2.333H54.855L54.855,1194.179z"
   fill="#E0E2E0"
   id="clipboard-list_1_" />
	<polygon
   style=""
   id="polygon230"
   points="65.826,1191.877 62.523,1192.629 59.5,1197.592 59.5,1201.961 64.648,1202.877 69.672,1199.795    70.452,1195.461 69.175,1193.318 65.911,1192.211  "
   fill="#FFFFFF" />
	<polygon
   style=""
   id="polygon232"
   points="85.707,1171.029 67.697,1189.148 73.129,1195.383 92.113,1175.967 103.28,1164.441    97.607,1158.857  "
   fill="#4A8D8A" />
	<g
   style=""
   id="g236">
		<path
   style=""
   id="path234"
   d="M58.089,1204.557v-1.004c0-0.303,0.043-7.482,3.791-11.193c1.129-1.119,2.623-1.734,4.207-1.734s3.073,0.617,4.194,1.736    c1.125,1.125,1.742,2.621,1.742,4.211c-0.002,1.586-0.621,3.076-1.744,4.193c-3.732,3.721-10.885,3.787-11.188,3.787    L58.089,1204.557z M66.087,1192.625c-1.054,0-2.048,0.41-2.8,1.154c-2.389,2.365-2.993,6.719-3.146,8.719    c1.998-0.158,6.344-0.773,8.729-3.148c0.742-0.738,1.152-1.727,1.154-2.777c0-1.057-0.41-2.049-1.156-2.795    C68.125,1193.033,67.137,1192.625,66.087,1192.625z" />
	</g>
	<g
   style=""
   id="g240">
		<path
   style=""
   id="path238"
   d="M59.089,1204.553c-0.256,0-0.513-0.098-0.707-0.293c-0.392-0.391-0.392-1.023,0-1.414l5.657-5.656    c0.391-0.391,1.023-0.391,1.414,0s0.391,1.023,0,1.414l-5.657,5.656C59.602,1204.455,59.345,1204.553,59.089,1204.553z" />
	</g>
	<g
   style=""
   id="g244">
		<path
   style=""
   id="path242"
   d="M73,1196.299L73,1196.299c-0.266,0-0.52-0.104-0.707-0.293l-5.655-5.658c-0.391-0.391-0.391-1.021,0-1.414l31.111-31.111    c0.188-0.188,0.441-0.293,0.707-0.293l0,0c0.265,0,0.52,0.105,0.707,0.293l5.656,5.658c0.391,0.391,0.391,1.021,0,1.412    l-31.112,31.113C73.52,1196.193,73.265,1196.299,73,1196.299z M68.758,1189.641l4.241,4.244l29.699-29.699l-4.242-4.242    L68.758,1189.641z" />
	</g>
	<g
   style=""
   id="g248">
		<path
   style=""
   id="path246"
   d="M80.07,1172.258c-0.256,0-0.512-0.098-0.707-0.293c-0.391-0.391-0.391-1.023,0-1.414l11.313-11.314    c1.949-1.949,5.123-1.949,7.072,0c0.391,0.391,0.391,1.023,0,1.414s-1.023,0.391-1.414,0c-1.171-1.17-3.075-1.17-4.244,0    l-11.313,11.314C80.583,1172.16,80.326,1172.258,80.07,1172.258z" />
	</g>
	<g
   style=""
   id="g252">
		<path
   style=""
   id="path250"
   d="M92.799,1176.502c-0.256,0-0.512-0.1-0.707-0.295l-5.655-5.656c-0.392-0.391-0.392-1.023,0-1.414    c0.391-0.391,1.022-0.391,1.414,0l5.655,5.656c0.392,0.391,0.392,1.023,0,1.414C93.312,1176.402,93.055,1176.502,92.799,1176.502z    " />
	</g>
	<path
   style=""
   id="path254"
   d="M47.846,1156.854h21.015c1.285,0,2.324-1.034,2.324-2.331v-2.337c0-1.287-1.039-2.331-2.324-2.331h-4.676   v-2.337c0-2.574-2.086-4.661-4.676-4.661h-2.311c-2.583,0-4.677,2.096-4.677,4.661v2.337h-4.676c-1.283,0-2.322,1.034-2.322,2.331   v2.337C45.524,1155.811,46.561,1156.854,47.846,1156.854z M58.354,1147.521c0.645,0,1.166,0.524,1.166,1.167   s-0.521,1.166-1.166,1.166s-1.166-0.523-1.166-1.166S57.709,1147.521,58.354,1147.521z"
   fill="#F67876" />
	<path
   style=""
   id="path256"
   d="M52.399,1165.396c-0.146-0.146-0.383-0.146-0.527,0l-5.557,5.531c-0.146,0.146-0.383,0.146-0.528,0   l-2.435-2.479c-0.071-0.073-0.166-0.109-0.262-0.109c-0.096-0.002-0.192,0.034-0.266,0.109l-1.076,0.968   c-0.071,0.072-0.11,0.165-0.11,0.261c0,0.098,0.039,0.197,0.111,0.271l2.454,2.576c0.146,0.148,0.384,0.385,0.528,0.531   l1.056,1.064c0.146,0.146,0.382,0.146,0.528,0l7.139-7.127c0.146-0.146,0.146-0.386,0-0.531L52.399,1165.396z"
   fill="#4A8D8A" />
	<rect
   style=""
   id="rect258"
   height="23.333"
   width="36.333"
   fill="none"
   y="1160.592"
   x="57.051" />
	<text
   style=""
   id="text260"
   font-size="12"
   font-family="'Impact'"
   fill="#4A8D8A"
   transform="matrix(1 0 0 1 57.0513 1170.084)">OK</text>



</g>
</svg>