<?xml version="1.0" encoding="UTF-8" standalone="no"?>
<!-- Generator: Adobe Illustrator 16.0.0, SVG Export Plug-In . SVG Version: 6.00 Build 0)  -->

<svg
   xmlns:dc="http://purl.org/dc/elements/1.1/"
   xmlns:cc="http://creativecommons.org/ns#"
   xmlns:rdf="http://www.w3.org/1999/02/22-rdf-syntax-ns#"
   xmlns:svg="http://www.w3.org/2000/svg"
   xmlns="http://www.w3.org/2000/svg"
   xmlns:sodipodi="http://sodipodi.sourceforge.net/DTD/sodipodi-0.dtd"
   xmlns:inkscape="http://www.inkscape.org/namespaces/inkscape"
   version="1.1"
   id="svg2"
   inkscape:version="0.92.5 (2060ec1f9f, 2020-04-08)"
   sodipodi:docname="buttons.svg"
   x="0px"
   y="0px"
   width="50.093731"
   height="452.45953"
   viewBox="0 0 50.093731 452.45955"
   enable-background="new 0 0 50 194.5"
   xml:space="preserve"><metadata
     id="metadata15"><rdf:RDF><cc:Work
         rdf:about=""><dc:format>image/svg+xml</dc:format><dc:type
           rdf:resource="http://purl.org/dc/dcmitype/StillImage" /><dc:title></dc:title></cc:Work></rdf:RDF></metadata><defs
     id="defs13" /><sodipodi:namedview
     id="namedview41"
     inkscape:window-x="48"
     inkscape:pageshadow="2"
     inkscape:object-nodes="true"
     inkscape:window-height="1016"
     inkscape:window-width="1872"
     inkscape:pageopacity="0"
     fit-margin-right="0"
     inkscape:current-layer="svg2"
     fit-margin-bottom="0"
     inkscape:window-y="27"
     inkscape:window-maximized="1"
     bordercolor="#666666"
     gridtolerance="10"
     guidetolerance="10"
     inkscape:zoom="1.3485691"
     objecttolerance="10"
     inkscape:cx="30.903096"
     fit-margin-top="0"
     inkscape:cy="225.40592"
     showgrid="false"
     pagecolor="#ffffff"
     fit-margin-left="0"
     borderopacity="1"
     showguides="false" /><g
     id="previousPage"
     transform="translate(-680.18028,-417.66799)"><path
       id="path3010"
       inkscape:connector-curvature="0"
       d="m 730.274,442.688 c 0.012,13.807 -11.173,25.009 -24.98,25.02 -13.807,0.011 -25.009,-11.173 -25.02,-24.98 0,-0.013 0,-0.026 0,-0.039 -0.011,-13.808 11.173,-25.009 24.98,-25.021 13.807,-0.012 25.008,11.173 25.02,24.979 0,0.015 0,0.028 0,0.041 z"
       style="fill:#e0ecec;fill-opacity:1" /><path
       id="rect3012"
       inkscape:connector-curvature="0"
       d="m 710.364,429.769 -10.179,10.179 -2.741,2.741 2.741,2.74 10.179,10.179 2.74,-2.696 -10.179,-10.223 10.179,-10.18 z"
       style="fill:#434e52;fill-opacity:1" /></g><g
     id="nextPage"
     transform="matrix(-1,0,0,1,730.36767,-374.74141)"><path
       id="path3789"
       inkscape:connector-curvature="0"
       d="m 730.274,466.943 c 0.011,13.807 -11.173,25.009 -24.98,25.021 -13.807,0.011 -25.008,-11.173 -25.02,-24.98 0,-0.013 0,-0.026 0,-0.039 -0.012,-13.808 11.174,-25.009 24.98,-25.02 13.807,-0.011 25.009,11.173 25.02,24.98 0,0.012 0,0.024 0,0.038 z"
       style="fill:#e0ecec;fill-opacity:1" /><path
       id="path3791"
       inkscape:connector-curvature="0"
       d="m 710.364,454.023 -10.18,10.18 -2.74,2.74 2.74,2.74 10.18,10.18 2.74,-2.697 -10.18,-10.223 10.18,-10.179 z"
       style="fill:#434e52;fill-opacity:1" /></g><g
     id="g4111"
     transform="translate(2.9736879,-5.9675071)"><path
       id="path3973"
       inkscape:connector-curvature="0"
       d="M 47.119,165.349 C 47.111,179.157 35.912,190.341 22.105,190.333 8.309,190.326 -2.873,179.145 -2.881,165.349 -2.889,151.538 8.298,140.343 22.105,140.332 c 13.807,-0.008 25.006,11.183 25.014,24.986 0,0.012 0,0.021 0,0.031 z"
       style="fill:#e0ecec;fill-opacity:1" /><path
       id="path3985"
       inkscape:connector-curvature="0"
       d="m 22.053,150.168 -16.955,16.954 6.524,0.021 v 13.383 h 6.213 V 170.474 H 26.4 v 10.054 h 6.215 v -13.316 l 6.523,0.021 z"
       style="fill:#434e52;fill-opacity:1" /></g><path
     style="fill:#e0ecec"
     d="m 0,226.43439 c 0,13.8 11.2,25 25,25 13.8,0 25,-11.2 25,-25 0,-13.8 -11.2,-25 -25,-25 -13.8,0 -25,11.2 -25,25 0,0 0,0 0,0 z"
     class="st0"
     inkscape:connector-curvature="0"
     id="path3789-6" /><path
     style="fill:#434e52"
     inkscape:connector-curvature="0"
     d="m 38.7,216.83439 c 0,1.1 -0.9,2.1 -2.1,2.1 H 14 c -1.1,0 -2.1,-0.9 -2.1,-2.1 v -3.3 c 0,-1.1 0.9,-2.1 2.1,-2.1 h 22.6 c 1.1,0 2.1,0.9 2.1,2.1 0,-0.1 0,3.3 0,3.3 z"
     class="st1"
     id="path544" /><path
     style="fill:#434e52"
     inkscape:connector-curvature="0"
     d="m 38.7,239.43439 c 0,1.1 -0.9,2.1 -2.1,2.1 H 14 c -1.1,0 -2.1,-0.9 -2.1,-2.1 v -3.3 c 0,-1.1 0.9,-2.1 2.1,-2.1 h 22.6 c 1.1,0 2.1,0.9 2.1,2.1 0,-0.1 0,3.3 0,3.3 z"
     class="st1"
     id="path546" /><path
     style="fill:#434e52"
     inkscape:connector-curvature="0"
     d="m 38.7,228.13439 c 0,1.1 -0.9,2.1 -2.1,2.1 H 14 c -1.1,0 -2.1,-0.9 -2.1,-2.1 v -3.3 c 0,-1.1 0.9,-2.1 2.1,-2.1 h 22.6 c 1.1,0 2.1,0.9 2.1,2.1 0,-0.1 0,3.3 0,3.3 z"
     class="st1"
     id="path548" /><g
     id="g13"
     transform="translate(311.5,-138.05299)"><path
       id="path3789_1_"
       inkscape:connector-curvature="0"
       class="st1"
       d="m -311.5,431.5 c 0,13.8 11.2,25 25,25 13.8,0 25,-11.2 25,-25 0,-13.8 -11.2,-25 -25,-25 -13.8,0 -25,11.2 -25,25 0,0 0,0 0,0 z"
       style="fill:#434e52" /><g
       id="mobile_1_"><g
         id="g542_1_"><path
           id="path544_1_"
           class="st0"
           d="m -272.8,421.9 c 0,1.1 -0.9,2.1 -2.1,2.1 h -22.6 c -1.1,0 -2.1,-0.9 -2.1,-2.1 v -3.3 c 0,-1.1 0.9,-2.1 2.1,-2.1 h 22.6 c 1.1,0 2.1,0.9 2.1,2.1 0,-0.1 0,3.3 0,3.3 z"
           inkscape:connector-curvature="0"
           style="fill:#e0ecec" /><path
           id="path546_1_"
           class="st0"
           d="m -272.8,444.5 c 0,1.1 -0.9,2.1 -2.1,2.1 h -22.6 c -1.1,0 -2.1,-0.9 -2.1,-2.1 v -3.3 c 0,-1.1 0.9,-2.1 2.1,-2.1 h 22.6 c 1.1,0 2.1,0.9 2.1,2.1 0,-0.1 0,3.3 0,3.3 z"
           inkscape:connector-curvature="0"
           style="fill:#e0ecec" /><path
           id="path548_1_"
           class="st0"
           d="m -272.8,433.2 c 0,1.1 -0.9,2.1 -2.1,2.1 h -22.6 c -1.1,0 -2.1,-0.9 -2.1,-2.1 v -3.3 c 0,-1.1 0.9,-2.1 2.1,-2.1 h 22.6 c 1.1,0 2.1,0.9 2.1,2.1 0,-0.1 0,3.3 0,3.3 z"
           inkscape:connector-curvature="0"
           style="fill:#e0ecec" /></g></g></g><g
     transform="matrix(2.5,0,0,2.5,1.0372887e-5,235.50111)"
     id="g837"><circle
       r="19.227728"
       cy="138.36406"
       cx="-264.51117"
       style="color:#000000;display:inline;overflow:visible;visibility:visible;fill:#e0ecec;fill-opacity:1;fill-rule:nonzero;stroke:none;stroke-width:1.92277277;marker:none;enable-background:accumulate"
       id="path2993"
       transform="matrix(0.52008225,0,0,0.52008225,147.56756,-21.96049)" /><path
       inkscape:connector-curvature="0"
       id="rect3002"
       d="m 5.875011,44.125001 c -0.4483254,0 -0.8752202,0.18772 -1.21875,0.53125 -0.6870603,0.68706 -0.6870603,1.78169 0,2.46875 l 2.875,2.875 -2.875,2.875 c -0.6870596,0.68706 -0.6870603,1.78169 0,2.46875 0.6870603,0.68706 1.7816904,0.68706 2.46875,0 l 2.875,-2.875 2.875,2.875 c 0.68706,0.68706 1.78169,0.68706 2.46875,0 0.68706,-0.68706 0.68706,-1.78169 0,-2.46875 l -2.875,-2.875 2.875,-2.875 c 0.68706,-0.68706 0.68706,-1.78169 0,-2.46875 -0.68706,-0.68706 -1.78169,-0.68706 -2.46875,0 l -2.875,2.875 -2.875,-2.875 c -0.3435302,-0.34353 -0.8016746,-0.53125 -1.25,-0.53125 z"
       style="color:#000000;display:inline;overflow:visible;visibility:visible;fill:#434e52;fill-opacity:1;fill-rule:nonzero;stroke:none;stroke-width:1;marker:none;enable-background:accumulate" /></g><g
     id="g932"
     transform="translate(57.637286,174.30981)"><path
       d="m -32.639787,228.14971 c 13.803794,0 25.0025001,11.19167 25.0025001,24.99667 0,13.81167 -11.1987061,25.00333 -25.0025001,25.00333 -13.803793,0 -24.997499,-11.19166 -24.997499,-25.00333 0,-13.805 11.193706,-24.99667 24.997499,-24.99667"
       id="path99"
       inkscape:connector-curvature="0"
       style="opacity:1;vector-effect:none;fill:#e0ecec;fill-opacity:1;stroke-width:1;stroke-linecap:butt;stroke-linejoin:miter;stroke-miterlimit:4;stroke-dasharray:none;stroke-dashoffset:0;stroke-opacity:1" /><path
       d="m -30.183509,268.12607 c 0,1.59164 -1.29168,2.89015 -2.887959,2.89015 -1.593988,0 -2.887958,-1.29622 -2.887958,-2.89015 0,-1.59851 1.29168,-2.88787 2.887958,-2.88787 1.596279,0.003 2.887959,1.28936 2.887959,2.88787 z"
       id="path104"
       inkscape:connector-curvature="0"
       style="vector-effect:none;fill:#434e52;fill-opacity:1;stroke-width:1.37408221;stroke-linecap:butt;stroke-linejoin:miter;stroke-miterlimit:4;stroke-dasharray:none;stroke-dashoffset:0;stroke-opacity:1" /><path
       d="m -32.991465,263.89971 c -1.40338,0 -2.720091,-0.54833 -3.715124,-1.545 -0.993366,-1.15833 -1.538384,-2.47666 -1.538384,-3.88 0,-1.40333 0.546684,-2.72166 1.538384,-3.54333 l 7.026901,-7.02667 c 0.79336,-0.79666 1.230041,-1.85 1.230041,-2.97 0,-1.125 -0.438348,-2.18 -1.231708,-2.97333 -1.636721,-1.635 -4.303476,-1.63667 -5.940198,0 -0.796693,0.795 -1.233374,1.84833 -1.233374,2.97333 h -4.201807 c 0,-2.24666 0.875029,-4.36 2.466749,-5.94666 3.173439,-3.175 8.70529,-3.17167 11.883729,0.005 1.58672,1.58166 2.461749,3.69333 2.461749,5.94166 0,2.245 -0.873362,4.35334 -2.463415,5.94167 l -7.026901,6.85333 c -0.408347,0.41 -0.408347,1.075 0,1.48667 0.41168,0.41 1.076702,0.41 1.485049,0 0.268343,-0.27 0.308344,-0.585 0.308344,-0.745 h 4.201807 c 0,1.40333 -0.546685,2.725 -1.540052,3.88333 -0.990033,0.995 -2.30841,1.545 -3.71179,1.545 z"
       id="path106"
       inkscape:connector-curvature="0"
       style="vector-effect:none;fill:#434e52;fill-opacity:1;stroke-width:1;stroke-linecap:butt;stroke-linejoin:miter;stroke-miterlimit:4;stroke-dasharray:none;stroke-dashoffset:0;stroke-opacity:1" /></g></svg>