<?xml version="1.0" encoding="UTF-8" standalone="no"?>
<!-- Generated by IcoMoon.io -->

<svg
   xmlns:dc="http://purl.org/dc/elements/1.1/"
   xmlns:cc="http://creativecommons.org/ns#"
   xmlns:rdf="http://www.w3.org/1999/02/22-rdf-syntax-ns#"
   xmlns:svg="http://www.w3.org/2000/svg"
   xmlns="http://www.w3.org/2000/svg"
   xmlns:sodipodi="http://sodipodi.sourceforge.net/DTD/sodipodi-0.dtd"
   xmlns:inkscape="http://www.inkscape.org/namespaces/inkscape"
   version="1.1"
   width="19.175669"
   height="196.62238"
   viewBox="0 0 19.175669 196.62238"
   id="svg6"
   sodipodi:docname="text.svg"
   inkscape:version="0.92.4 (5da689c313, 2019-01-14)">
  <metadata
     id="metadata12">
    <rdf:RDF>
      <cc:Work
         rdf:about="">
        <dc:format>image/svg+xml</dc:format>
        <dc:type
           rdf:resource="http://purl.org/dc/dcmitype/StillImage" />
        <dc:title>down</dc:title>
      </cc:Work>
    </rdf:RDF>
  </metadata>
  <defs
     id="defs10" />
  <sodipodi:namedview
     pagecolor="#ffffff"
     bordercolor="#666666"
     borderopacity="1"
     objecttolerance="10"
     gridtolerance="10"
     guidetolerance="10"
     inkscape:pageopacity="0"
     inkscape:pageshadow="2"
     inkscape:window-width="1920"
     inkscape:window-height="1017"
     id="namedview8"
     showgrid="false"
     fit-margin-top="0"
     fit-margin-left="0"
     fit-margin-right="0"
     fit-margin-bottom="0"
     inkscape:zoom="2.6074563"
     inkscape:cx="-93.539572"
     inkscape:cy="101.22848"
     inkscape:window-x="1912"
     inkscape:window-y="-8"
     inkscape:window-maximized="1"
     inkscape:current-layer="svg6" />
  <title
     id="title2">down</title>
  <path
     d="m 16.318183,186.78374 q 0.634091,0.63409 0.634091,1.49318 0,0.85909 -0.634091,1.51363 l -6.831819,6.83182 -6.8522722,-6.83182 q -0.6340909,-0.63409 -0.6340909,-1.51363 0,-0.87955 0.6340909,-1.49318 0.6340909,-0.61364 1.5136364,-0.65455 0.8795454,-0.0409 1.5136364,0.65455 l 1.6772726,1.67727 v -7.71136 q 0,-0.87955 0.6340912,-1.49319 0.6340906,-0.61363 1.5136356,-0.63409 0.879545,0 1.493182,0.63409 0.613636,0.63409 0.634091,1.49319 v 7.71136 l 1.697726,-1.67727 q 0.634093,-0.65455 1.493182,-0.65455 0.859092,0 1.513638,0.65455 z"
     id="path4"
     inkscape:connector-curvature="0"
     style="stroke-width:0.63920456;fill:#434e52;fill-opacity:1" />
  <path
     id="path4524"
     d="m 0.03485209,106.77844 q 0.2262908,-0.76116 2.07776061,-0.76116 H 6.741287 l 1.419461,-4.25838 v -0.0206 q 0.390865,-1.15203 0.905163,-1.54289 0.514297,-0.390869 1.008022,0 0.493725,0.39086 0.884591,1.54289 l 0.02057,0.0206 1.398888,4.25838 h 4.649247 q 1.193169,0 1.74861,0.34972 0.555441,0.34972 0.288006,0.96688 -0.267434,0.61716 -1.213741,1.29603 l -0.102859,0.0823 -3.620652,2.59205 1.378316,4.25839 0.04114,0.0411 q 0.555441,1.74861 -0.08229,2.24233 -0.637728,0.49373 -2.160048,-0.59658 l -0.06171,-0.0411 -0.04114,-0.0206 -3.641224,-2.61263 -3.682368,2.6332 -0.04114,0.0411 q -1.5017524,1.06974 -2.1600528,0.59658 -0.6583003,-0.47315 -0.082288,-2.24233 l 0.020572,-0.0206 v -0.0411 l 1.3988883,-4.23782 -3.6412242,-2.59205 -0.082288,-0.0823 q -1.50174771,-1.06974 -1.25488511,-1.85147 z"
     inkscape:connector-curvature="0"
     style="stroke-width:0.64287144;fill:#434e52;fill-opacity:1" />
  <path
     id="path4537"
     d="m 0.06915822,87.338312 q -0.230524,-0.595518 0.307364,-0.960511 0.537887,-0.364995 1.74813298,-0.345785 h 4.648879 l 1.421558,-4.264675 v -0.01922 q 0.268944,-0.86446 0.633939,-1.306296 0.364994,-0.441836 0.76841,-0.441836 0.384204,0 0.7491988,0.441836 0.364995,0.441836 0.633938,1.306296 l 0.01921,0.01922 1.402348,4.264675 h 4.64888 q 1.210246,0 1.748132,0.345785 0.537887,0.345784 0.307364,0.960511 -0.230523,0.614728 -1.229456,1.306297 l -0.09605,0.07684 -3.649947,2.593384 1.440768,4.303095 q 0.364995,1.152614 0.211313,1.748132 -0.153681,0.595517 -0.76841,0.614728 -0.710779,0 -1.690501,-0.729989 l -0.03842,-0.03842 -0.05763,-0.01921 -3.6307358,-2.612593 -3.745998,2.670225 Q 4.8525112,98 4.1609432,98 q -0.595518,0 -0.76841,-0.614728 -0.172892,-0.614728 0.211312,-1.767343 l 0.01921,-0.05763 1.421558,-4.245465 -3.649947,-2.593384 -0.03842,-0.05763 -0.05763,-0.01922 Q 0.31889422,87.933821 0.06916122,87.338303 Z m 3.16968998,0.499467 3.899681,2.785486 -0.403416,1.248666 -1.094984,3.323373 3.957312,-2.823907 3.9380998,2.823907 -1.094984,-3.323373 -0.403415,-1.248666 3.89968,-2.785486 H 11.11505 l -0.403415,-1.248666 -1.1141938,-3.361793 -1.53682,4.610459 z"
     inkscape:connector-curvature="0"
     style="stroke-width:0.60032022;fill:#434e52;fill-opacity:1" />
  <path
     id="path4550"
     d="m 9.486365,140 6.831818,6.83182 q 0.634091,0.63409 0.634091,1.49318 0,0.85909 -0.634091,1.51364 -0.634091,0.65454 -1.513636,0.63409 -0.879546,-0.0205 -1.493182,-0.63409 l -1.697728,-1.67728 v 7.71137 q 0,0.9 -0.634091,1.51363 Q 10.345456,158 9.486365,158 q -0.879546,0 -1.5136371,-0.63409 -0.634091,-0.63409 -0.634091,-1.49318 v -7.71137 l -1.677272,1.67728 q -0.634091,0.63409 -1.513637,0.63409 -0.879545,0 -1.513636,-0.63409 -0.634091,-0.6341 -0.634091,-1.51364 0,-0.87955 0.634091,-1.49318 z"
     inkscape:connector-curvature="0"
     style="stroke-width:0.63920456;fill:#434e52;fill-opacity:1" />
  <path
     id="path4563"
     d="m 9.465604,138 q -1.1665,0 -1.9740781,-0.82552 -0.807577,-0.82553 -0.825523,-1.97408 v -4.45065 q -0.807577,0.71785 -1.938185,0.68195 -1.130609,-0.0359 -1.902294,-0.78963 -0.825523,-0.82552 -0.825523,-1.99202 0,-1.1665 0.825523,-1.97408 L 9.465604,120 l 6.675972,6.67597 q 0.825524,0.82553 0.825524,1.97408 0,1.14855 -0.825524,1.99202 -0.771685,0.75374 -1.920239,0.78963 -1.148554,0.0359 -1.938185,-0.68195 v 4.45065 q 0,1.1665 -0.825524,1.97408 Q 10.632105,137.98205 9.465604,138 Z M 8.55035,126.24526 v 8.95514 q 0,0.37687 0.269192,0.66401 0.269193,0.28713 0.646062,0.26919 0.37687,-0.018 0.664008,-0.26919 0.287139,-0.25125 0.287139,-0.66401 v -8.95514 l 3.068793,3.0688 q 0.269193,0.26919 0.664008,0.26919 0.394816,0 0.664008,-0.26919 0.269193,-0.2692 0.269193,-0.66401 0,-0.39482 -0.269193,-0.66401 l -5.347956,-5.33001 -5.3300101,5.33001 q -0.269192,0.26919 -0.269192,0.66401 0,0.39481 0.269192,0.66401 0.269193,0.26919 0.664008,0.26919 0.394816,0 0.664008,-0.26919 z"
     inkscape:connector-curvature="0"
     style="stroke-width:0.56081754;fill:#434e52;fill-opacity:1" />
  <path
     id="path4576"
     d="m 9.443187,178 -6.6201421,-6.63803 q -0.823044,-0.82305 -0.823044,-1.96815 0,-1.14511 0.823044,-1.96815 0.769369,-0.76937 1.896582,-0.78726 1.127213,-0.0179 1.932365,0.6799 v -4.52674 q 0,-1.163 0.823044,-1.96815 0.8230461,-0.80516 1.9681511,-0.82305 1.145106,-0.0179 1.986042,0.82305 0.840938,0.84093 0.823044,1.96815 v 4.52674 q 0.805153,-0.71569 1.932367,-0.6799 1.127213,0.0358 1.914473,0.78726 0.823045,0.82304 0.823045,1.96815 0,1.1451 -0.823045,1.96815 z m -4.6519911,-9.55447 q -0.39363,0 -0.662014,0.26838 -0.268385,0.26838 -0.268385,0.66201 0,0.39363 0.268385,0.66202 l 5.3140051,5.3319 5.331898,-5.3319 q 0.268383,-0.26839 0.268383,-0.66202 0,-0.39363 -0.268383,-0.66201 -0.268385,-0.26838 -0.662014,-0.26838 -0.393631,0 -0.662014,0.26838 l -3.05958,3.09536 v -9.0177 q 0,-0.37574 -0.286276,-0.64412 -0.286277,-0.26839 -0.662014,-0.26839 -0.375738,0 -0.644122,0.26839 -0.268384,0.26838 -0.268384,0.64412 v 9.0177 l -3.0774711,-3.09536 q -0.268385,-0.26838 -0.662014,-0.26838 z"
     inkscape:connector-curvature="0"
     style="stroke-width:0.55913359;fill:#434e52;fill-opacity:1" />
  <path
     id="path4589"
     d="m 4.2460509,73.24605 q 0,-1.218962 0.182844,-2.417608 0.182844,-1.198645 0.629797,-2.417607 0.446952,-1.218961 1.158013,-2.133183 0.711061,-0.914222 1.828443,-1.483072 1.117381,-0.56885 2.5395031,-0.56885 v -3.1693 q 0,-0.44695 0.345373,-0.75169 Q 11.275396,60 11.783297,60 q 0.568848,0 0.934537,0.38601 l 6.3386,6.501123 q -4.266365,4.286682 -6.3386,6.460497 -0.345373,0.40632 -0.934537,0.40632 -0.507901,0 -0.853273,-0.30474 -0.345373,-0.30474 -0.345373,-0.751693 v -3.1693 Q 6.9683979,69.609477 4.2460509,73.75395 Z M 1.0767499,78 Q 0.6297979,78 0.3250569,77.674944 0.0203169,77.349887 8.9607059e-7,76.923251 V 62.11287 q 0,-0.42664 0.32505600392941,-0.7517 0.325057,-0.32505 0.751693,-0.30474 h 8.451468 v 2.13319 h -7.41535 V 75.887133 H 14.810385 v -3.189616 q 1.320542,-1.361174 2.133183,-2.173815 v 6.399549 q 0,0.426636 -0.325057,0.751693 Q 16.293455,78 15.866818,78 Z"
     inkscape:connector-curvature="0"
     style="stroke-width:0.63487583;fill:#434e52;fill-opacity:1" />
  <path
     id="path4602"
     d="m 18.709469,46.79351 q 0.287838,0.28784 0.287838,0.71 0,0.42216 -0.287838,0.69081 -1.266487,1.28568 -2.705677,2.74406 v 6.04459 q 0,0.40298 -0.307027,0.71 Q 15.389738,58 14.986764,58 H 1.0170279 q -0.422162,0 -0.71,-0.30703 Q 0.0191899,57.38595 8.9607059e-7,56.98297 V 42.99405 q 0,-0.40298 0.30702700392941,-0.71 0.307027,-0.30703 0.71,-0.28784 h 7.982707 q 0,-0.82514 0.614054,-1.40081 0.6140541,-0.57568 1.5159471,-0.59487 0.901892,-0.0192 1.592703,0.65244 2.302704,2.43702 5.98703,6.14054 z m -7.42622,6.14054 q 4.912435,-5.04676 5.296219,-5.43054 -3.377299,-3.43487 -5.27703,-5.46892 -0.07676,-0.0384 -0.172702,-0.0384 -0.09595,0 -0.134325,0.0384 v 3.95297 H 9.9975729 q -0.901892,0 -1.650271,0.32622 -0.748379,0.32621 -1.247298,0.78676 -0.498919,0.46054 -0.882703,1.17054 -0.383784,0.71 -0.594865,1.32405 -0.211081,0.61406 -0.364595,1.36243 2.14919,-1.9381 4.739732,-1.95729 h 0.9978381 v 3.95297 q 0.03838,0.0384 0.134325,0.0384 0.07676,0 0.153513,-0.0576 z M 1.9956779,56.00432 H 13.988926 v -4.45189 q -1.170541,1.18973 -1.976487,2.05324 -0.326217,0.38379 -0.882703,0.38379 -0.47973,0 -0.805947,-0.28784 -0.3262161,-0.28784 -0.3262161,-0.71 V 49.9981 q -3.415677,0.0768 -5.98703,3.99136 v -0.47973 q 0,-1.15135 0.172703,-2.28352 0.172703,-1.13216 0.594865,-2.28351 0.422163,-1.15135 1.093784,-2.01487 0.671622,-0.86351 1.727028,-1.40081 1.055406,-0.5373 2.39865,-0.5373 v -0.97865 h -8.001895 z"
     inkscape:connector-curvature="0"
     style="stroke-width:0.59966242;fill:#434e52;fill-opacity:1" />
  <path
     id="path4615"
     d="m 12.381753,20 h 5.639856 v 5.61825 q 0,0.47539 -0.345737,0.79952 -0.345739,0.32413 -0.799521,0.34574 -0.453781,0.0216 -0.79952,-0.34574 -0.345738,-0.36735 -0.324129,-0.79952 v -1.77191 l -3.695078,3.69508 q -0.324129,0.32413 -0.79952,0.32413 -0.47539,0 -0.79952,-0.32413 -0.32413,-0.32413 -0.32413,-0.79952 0,-0.47539 0.32413,-0.79952 l 3.695078,-3.69508 h -1.771909 q -0.47539,0 -0.799519,-0.32413 -0.32413,-0.32413 -0.32413,-0.79952 0,-0.47539 0.32413,-0.79952 Q 11.906363,20 12.381753,20 Z M 5.9639859,30.45858 q 0.32413,-0.32413 0.799521,-0.32413 0.47539,0 0.77791,0.32413 0.302522,0.32413 0.324131,0.79952 0.02161,0.47539 -0.324131,0.79952 l -3.695077,3.69508 h 1.771909 q 0.453781,0 0.799519,0.34574 0.345739,0.34574 0.345739,0.79952 0,0.45378 -0.345739,0.77791 Q 6.0720299,38 5.6182489,38 H 8.9607059e-7 v -5.61825 q 0,-0.45378 0.34573800392941,-0.79952 0.345739,-0.34574 0.79952,-0.34574 0.453782,0 0.777911,0.34574 0.32413,0.34574 0.32413,0.79952 v 1.77191 z M 3.3709499,29.0108 q -0.453782,0 -0.799521,-0.34573 -0.345738,-0.34574 -0.324129,-0.79952 V 22.2473 h 5.639855 q 0.453783,0 0.777912,0.34574 0.324129,0.34574 0.324129,0.79952 0,0.45378 -0.324129,0.77791 -0.324129,0.32413 -0.777912,0.32413 h -3.370947 v 3.37095 q 0,0.45378 -0.345739,0.79952 -0.345738,0.34573 -0.799519,0.34573 z m 11.2797111,0 q 0.453781,0 0.777912,0.32413 0.324129,0.32413 0.324129,0.79952 v 5.61825 h -5.618248 q -0.4537811,0 -0.7995191,-0.32413 -0.345738,-0.32413 -0.345738,-0.79952 0,-0.47539 0.345738,-0.79952 0.345738,-0.32413 0.7995191,-0.32413 h 3.370949 v -3.37095 q 0,-0.45378 0.345739,-0.79952 0.345738,-0.34573 0.799519,-0.32413 z"
     inkscape:connector-curvature="0"
     style="stroke-width:0.67527014;fill:#434e52;fill-opacity:1" />
  <path
     id="path4628"
     d="m 11.145092,0 h 6.854323 v 6.63615 q 0,0.90906 -0.527255,1.63631 -0.527256,0.72725 -1.381774,1.01815 v 6.79977 H 9.4724199 q -0.2909,0.83634 -1.090874,1.38178 -0.799974,0.54543 -1.745398,0.52725 H 8.9607059e-7 v -6.63614 q 0,-0.90907 0.52725600392941,-1.63631 0.527255,-0.72725 1.381773,-1.01815 0,-0.0364 -0.01818,-0.0545 -0.01818,-0.0182 0,-0.0727 V 1.89092 h 6.581604 Q 8.7815349,1.0364 9.5087839,0.52732 10.236033,0.01825 11.145094,7e-5 Z m 3.054446,14.19954 V 9.39969 q 0,-0.3818 -0.272718,-0.65452 -0.272718,-0.27272 -0.672705,-0.2909 -0.399987,-0.0182 -0.654525,0.2909 -0.254537,0.30908 -0.272718,0.65452 v 2.909 H 9.4724199 q -0.381806,0 -0.672706,0.27272 -0.290899,0.27272 -0.272718,0.6727 0.01818,0.39999 0.272718,0.67271 0.254537,0.27272 0.672706,0.27272 z M 3.7998769,3.79988 v 4.78166 q 0,0.39999 0.272719,0.6727 0.272718,0.27272 0.654524,0.27272 0.381805,0 0.672705,-0.27272 0.2909,-0.27271 0.2909,-0.6727 v -2.909 h 2.908996 q 0.381806,0 0.654524,-0.27272 0.272718,-0.27271 0.272718,-0.6727 0,-0.39999 -0.272718,-0.65453 Q 8.9815269,3.81806 8.5997209,3.79988 Z M 16.090386,6.63615 v -4.7453 h -4.727119 q -0.381806,0 -0.672705,0.27272 -0.2909,0.27271 -0.272719,0.6727 0.01818,0.39999 0.272719,0.67271 0.254537,0.27271 0.672705,0.2909 h 1.509042 L 9.7451379,6.90887 q -0.272718,0.27271 -0.272718,0.6727 0,0.39999 0.272718,0.67271 0.2727181,0.27271 0.6727051,0.27271 0.399987,0 0.672706,-0.27271 l 3.108989,-3.12717 v 1.50904 q 0,0.3818 0.290901,0.65452 0.290899,0.27272 0.672705,0.27272 0.381806,0 0.654524,-0.27272 0.272718,-0.27272 0.272718,-0.65452 z m -9.4542381,9.45423 q 0.381806,0 0.654525,-0.27271 0.272718,-0.27272 0.272718,-0.65453 0,-0.3818 -0.272718,-0.6727 -0.272719,-0.2909 -0.654525,-0.2909 h -1.49086 l 3.108989,-3.10899 q 0.272719,-0.27272 0.272719,-0.67271 0,-0.39998 -0.272719,-0.6727 -0.272718,-0.27272 -0.690886,-0.27272 -0.381806,0 -0.654524,0.27272 l -3.10899,3.10899 v -1.49086 q 0,-0.38181 -0.290899,-0.67271 -0.2909,-0.2909 -0.672706,-0.2909 -0.381806,0 -0.672705,0.2909 -0.2909,0.2909 -0.272719,0.67271 v 4.72711 z m 0.927243,-7.56339 q 0.781793,0 1.345411,0.54544 0.563618,0.54544 0.563618,1.32723 0,0.50908 -0.2909,0.98179 0.109087,-0.0182 0.345443,-0.0182 H 11.363267 V 9.39968 q 0,-0.0182 0.01818,-0.0909 0.01818,-0.0727 0,-0.10909 -0.418168,0.27272 -0.963605,0.27272 -0.7817921,0 -1.3454101,-0.56362 -0.563618,-0.56362 -0.545437,-1.34541 0,-0.4909 0.272718,-0.94543 -0.01818,0 -0.09091,0 -0.07272,0 -0.109087,0.0182 h -1.963573 v 1.94539 q 0,0.0364 -0.01818,0.0909 -0.01818,0.0545 0,0.12727 0.43635,-0.27272 0.945424,-0.27272 z"
     inkscape:connector-curvature="0"
     style="stroke-width:0.56816328;fill:#434e52;fill-opacity:1" />
</svg>
